<?xml version="1.0" standalone="no"?>
<!DOCTYPE svg PUBLIC "-//W3C//DTD SVG 20010904//EN"
 "http://www.w3.org/TR/2001/REC-SVG-20010904/DTD/svg10.dtd">
<svg version="1.0" xmlns="http://www.w3.org/2000/svg"
 width="298.000000pt" height="498.000000pt" viewBox="0 0 298.000000 498.000000"
 preserveAspectRatio="xMidYMid meet">

<g transform="translate(0.000000,498.000000) scale(0.100000,-0.100000)"
fill="#e42222" stroke="none">
<path d="M80 2490 l0 -2410 1410 0 1410 0 0 2410 0 2410 -647 -2 -648 -3 643
-2 642 -3 0 -2400 0 -2400 -1400 0 -1400 0 0 2400 0 2400 638 0 638 0 59 -60
c33 -33 62 -60 66 -60 4 0 -23 29 -60 65 l-68 65 -641 0 -642 0 0 -2410z"/>
<!-- <path d="M1585 4869 c-11 -16 -1 -19 13 -3 7 8 8 14 3 14 -5 0 -13 -5 -16 -11z"/> -->
<!-- <path d="M1552 4834 c-7 -8 -8 -14 -3 -14 10 0 25 19 20 25 -2 1 -10 -3 -17
-11z"/> -->
<!-- <path d="M1515 4799 c-11 -16 -1 -19 13 -3 7 8 8 14 3 14 -5 0 -13 -5 -16 -11z"/> -->
</g>
</svg>
