<!-- Generated by IcoMoon.io -->
<svg version="1.1" xmlns="http://www.w3.org/2000/svg" width="1001" height="1024" viewBox="0 0 1001 1024">
<title></title>
<g id="icomoon-ignore">
</g>
<path fill="#000" d="M262.234 10.165c-6.144 6.264-11.444 11.323-11.804 11.323-1.204 0-4.095 3.373-4.095 4.698 0 0.722-0.602 1.325-1.325 1.325s-3.131 1.927-5.42 4.216c-2.168 2.289-4.337 4.216-4.698 4.216s-2.529 1.927-4.698 4.216c-2.289 2.289-4.698 4.216-5.42 4.216s-1.325 0.602-1.325 1.325c0 1.325-3.011 4.698-4.216 4.698-0.964 0-4.216 3.253-4.216 4.216s-3.253 4.216-4.216 4.216c-0.964 0-4.216 3.253-4.216 4.216s-3.253 4.216-4.216 4.216c-1.204 0-4.216 3.373-4.216 4.698 0 0.722-0.602 1.325-1.325 1.325-1.566 0-9.516 8.071-9.516 9.637 0 0.722 0.602 1.204 1.204 1.204 0.722 0 1.204 0.602 1.204 1.325 0 1.325 3.011 4.698 4.216 4.698 0.722 0 5.782 4.577 17.466 15.901 3.855 3.855 7.468 6.986 7.83 6.986 0.964 0 4.216 3.253 4.216 4.216s3.253 4.216 4.216 4.216c1.204 0 4.216 3.373 4.216 4.698 0 0.722 0.602 1.325 1.325 1.325 1.325 0 4.698 3.011 4.698 4.216 0 0.964 3.131 4.216 4.095 4.216 0.362 0 5.3 4.457 10.962 9.877 12.407 12.046 13.371 13.010 15.057 13.010 0.602 0 1.204 0.722 1.204 1.566s1.446 2.529 3.131 3.855c1.807 1.325 12.528 11.564 23.971 22.887 11.323 11.202 22.164 21.562 23.971 22.887s9.275 8.191 16.503 15.298c7.228 7.228 13.491 13.010 13.853 13.010 0.964 0 4.095 3.253 4.095 4.216s3.253 4.216 4.216 4.216c1.204 0 4.216 3.373 4.216 4.698 0 0.722 0.602 1.325 1.204 1.325 1.686 0 7.228 5.541 7.228 7.228 0 0.602 0.602 1.204 1.204 1.204 1.325 0 5.18 3.373 18.068 15.901 3.855 3.855 7.468 6.986 7.83 6.986 0.964 0 4.216 3.253 4.216 4.216s3.253 4.216 4.216 4.216c1.204 0 4.216 3.373 4.216 4.698 0 0.722 0.482 1.325 1.204 1.325 0.602 0 7.589 6.384 15.539 14.093 15.419 15.057 17.708 17.226 18.671 17.226 0.362 0 10.119 9.516 21.803 21.080s21.441 21.080 21.803 21.080c1.204 0 4.095 3.373 4.095 4.698 0 0.722 0.602 1.325 1.204 1.325 1.446 0 2.529 0.964 17.226 15.057 5.782 5.662 11.082 10.239 11.684 10.239 0.722 0 1.204 0.602 1.204 1.325 0 1.325 3.011 4.698 4.216 4.698 0.964 0 4.216 3.253 4.216 4.216s3.253 4.216 4.216 4.216c1.204 0 4.216 3.373 4.216 4.698 0 0.722 0.602 1.325 1.204 1.325 0.722 0 2.65 1.325 4.216 3.011 1.686 1.566 3.011 3.493 3.011 4.216 0 0.602 0.602 1.204 1.204 1.204 1.204 0 3.493 1.927 15.057 13.010 2.289 2.048 4.698 3.855 5.42 3.855 0.602 0 1.204 0.602 1.204 1.325 0 1.325 3.011 4.698 4.216 4.698s4.216 3.373 4.216 4.698c0 0.722 0.482 1.325 1.204 1.325 0.602 0 9.395 8.071 19.394 18.068 9.998 9.877 18.55 18.068 18.912 18.068 1.807 0 14.695 13.25 14.695 15.057 0 2.168-5.18 7.83-7.228 7.83-0.602 0-1.204 0.602-1.204 1.325 0 1.325-3.011 4.698-4.216 4.698-0.964 0-4.216 3.253-4.216 4.216s-3.253 4.216-4.216 4.216c-1.204 0-4.216 3.373-4.216 4.698 0 0.722-0.602 1.325-1.204 1.325-1.686 0-7.228 5.541-7.228 7.228 0 0.602-0.602 1.204-1.325 1.204s-3.131 1.927-5.42 4.216c-2.168 2.289-4.818 4.216-5.902 4.216-0.964 0-1.807 0.602-1.807 1.204 0 1.686-5.541 7.228-7.228 7.228-0.602 0-1.204 0.602-1.204 1.325 0 1.325-3.011 4.698-4.216 4.698-0.964 0-4.216 3.253-4.216 4.216s-3.131 4.216-4.095 4.216c-0.362 0-8.311 7.589-17.586 16.864s-17.346 16.864-17.948 16.864c-0.602 0-8.191 6.986-16.864 15.659-8.793 8.673-16.382 15.659-16.984 15.659-0.722 0-1.204 0.602-1.204 1.325 0 1.325-3.011 4.698-4.216 4.698-0.964 0-4.216 3.253-4.216 4.216s-3.253 4.216-4.216 4.216c-1.204 0-4.216 3.373-4.216 4.698 0 0.722-0.602 1.325-1.204 1.325-1.325 0-3.493 1.807-13.25 11.082-3.253 3.253-6.504 5.782-7.228 5.782-0.602 0-1.204 0.602-1.204 1.204 0 1.686-5.541 7.228-7.228 7.228-0.602 0-1.204 0.602-1.204 1.325 0 1.325-3.011 4.698-4.216 4.698-0.964 0-4.216 3.253-4.216 4.216s-3.253 4.216-4.216 4.216c-1.204 0-4.216 3.373-4.216 4.698 0 0.722-0.602 1.325-1.204 1.325-0.722 0-5.902 4.457-11.444 9.998-13.732 13.371-16.021 15.298-17.466 15.298-0.602 0-1.204 0.602-1.204 1.325 0 1.325-2.891 4.698-4.095 4.698-0.362 0-8.432 7.709-17.948 17.105-9.516 9.516-18.792 18.31-20.477 19.635-1.807 1.325-3.253 3.011-3.253 3.855s-0.602 1.566-1.204 1.566c-1.807 0-2.771 0.964-19.394 17.105-7.83 7.83-14.937 14.214-15.539 14.214-0.722 0-1.204 0.602-1.204 1.325 0 1.325-3.011 4.698-4.216 4.698-0.964 0-4.216 3.253-4.216 4.216s-3.253 4.216-4.216 4.216c-1.204 0-4.216 3.373-4.216 4.698 0 0.722-0.482 1.325-1.204 1.325-1.204 0-6.264 4.337-14.575 12.286-2.529 2.529-5.18 4.577-5.902 4.577-0.602 0-1.204 0.602-1.204 1.325 0 1.325-3.011 4.698-4.216 4.698-0.964 0-4.216 3.253-4.216 4.216 0 1.084-3.253 4.216-4.337 4.216-0.964 0-6.504 6.264-6.504 7.468 0 0.602-0.482 0.964-1.204 0.964-0.602 0-7.228 5.902-14.695 13.13-16.503 16.141-18.792 18.189-19.514 18.189-1.566 0-33.247 32.765-33.247 34.33 0 1.927 2.65 5.42 4.216 5.42 1.204 0 4.216 3.373 4.216 4.698 0 0.722 0.602 1.325 1.204 1.325 1.325 0 3.493 1.807 13.25 11.202 3.253 3.131 6.504 5.662 7.228 5.662 0.602 0 1.204 0.602 1.204 1.204 0 1.686 5.541 7.228 7.228 7.228 0.602 0 1.204 0.602 1.204 1.325 0 1.325 3.011 4.698 4.216 4.698 0.964 0 4.216 3.253 4.216 4.216s3.253 4.216 4.216 4.216c1.204 0 4.216 3.373 4.216 4.698 0 0.722 0.602 1.325 1.204 1.325 0.722 0 3.975 2.529 7.348 5.662 3.373 3.253 7.348 6.986 8.913 8.432 1.566 1.566 3.493 2.771 4.216 2.771 0.602 0 1.204 0.602 1.204 1.325 0 1.566 3.011 4.698 4.577 4.698 0.722 0 1.446 0.602 1.686 1.446 0.362 0.843 6.866-4.818 14.695-12.648 7.83-7.709 14.695-14.093 15.298-14.093s1.084-0.843 1.084-1.807c0-0.964 0.482-1.807 1.204-1.807 1.686 0 5.42-3.253 20.719-18.43 7.228-7.107 13.371-12.889 13.732-12.889 0.964 0 4.095-3.253 4.095-4.216s3.253-4.216 4.216-4.216c1.204 0 4.216-3.373 4.216-4.698 0-0.722 0.602-1.325 1.204-1.325 1.686 0 7.228-5.541 7.228-7.228 0-0.602 0.602-1.204 1.204-1.204 0.722 0 2.65-1.204 4.216-2.65 4.818-4.577 6.504-5.782 7.83-5.782 0.602 0 1.204-0.602 1.204-1.204 0-1.686 5.541-7.228 7.228-7.228 0.602 0 1.204-0.602 1.204-1.325 0-1.325 3.011-4.698 4.216-4.698 0.964 0 4.216-3.253 4.216-4.216s3.253-4.216 4.216-4.216c1.204 0 4.216-3.373 4.216-4.698 0-0.722 0.482-1.325 1.204-1.325 0.602 0 6.866-5.662 13.973-12.648 6.986-6.986 13.491-12.648 14.455-12.648s1.686-0.602 1.686-1.325c0-1.325 2.891-4.698 4.095-4.698 0.24 0 10.119-9.516 21.803-21.080s21.562-21.080 21.923-21.080c1.084 0 3.975-3.493 3.975-4.698 0-0.722 0.602-1.325 1.204-1.325 1.446 0 3.493-1.807 17.466-15.419 5.662-5.42 10.841-9.877 11.444-9.877 0.722 0 1.204-0.602 1.204-1.325 0-1.325 3.011-4.698 4.216-4.698 0.964 0 4.216-3.253 4.216-4.216s3.253-4.216 4.216-4.216c1.204 0 4.216-3.373 4.216-4.698 0-0.722 0.602-1.325 1.204-1.325 0.722 0 5.059-3.855 9.637-8.432s9.275-8.432 10.239-8.432c0.964 0 1.807-0.602 1.807-1.325 0-1.325 3.011-4.698 4.216-4.698 0.964 0 4.216-3.253 4.216-4.216s3.253-4.216 4.216-4.216c1.204 0 4.216-3.373 4.216-4.698 0-0.722 0.482-1.325 1.204-1.325 0.602 0 9.395-8.191 19.394-18.068 9.998-9.998 18.55-18.068 19.153-18.068 0.482 0 8.071-6.986 16.744-15.659 8.793-8.553 16.382-15.659 16.984-15.659 0.722 0 1.204-0.602 1.204-1.325 0-1.325 3.011-4.698 4.216-4.698 0.964 0 4.216-3.253 4.216-4.216s3.253-4.216 4.216-4.216c1.204 0 4.216-3.373 4.216-4.698 0-0.722 0.602-1.325 1.204-1.325 1.325 0 3.493-1.807 13.25-11.202 3.253-3.131 6.504-5.662 7.228-5.662 0.602 0 1.204-0.602 1.204-1.325 0-1.325 3.011-4.698 4.216-4.698 0.964 0 4.216-3.253 4.216-4.216s3.253-4.216 4.216-4.216c1.204 0 4.216-3.373 4.216-4.698 0-0.722 0.602-1.325 1.204-1.325 1.686 0 7.228-5.541 7.228-7.228 0-0.602 0.602-1.204 1.325-1.204 0.602 0 4.939-3.855 9.637-8.432 4.577-4.577 9.155-8.432 10.119-8.432s1.807-0.602 1.807-1.325c0-1.204 2.891-4.698 3.975-4.698 0.362 0 10.359-9.637 22.164-21.441 11.926-11.684 23.128-22.405 24.814-23.73 1.807-1.325 3.253-3.011 3.253-3.855s0.722-1.566 1.686-1.566c0.843 0 6.022-4.337 11.444-9.637l9.757-9.637-6.022-6.022c-3.253-3.253-6.504-6.022-7.228-6.022-0.602 0-1.204-0.602-1.204-1.325 0-1.446-6.022-7.107-7.468-7.107-0.602 0-0.964-0.602-0.964-1.325 0-1.325-3.011-4.698-4.216-4.698s-4.216-3.373-4.216-4.698c0-0.722-0.602-1.325-1.204-1.325-1.686 0-7.228-5.541-7.228-7.228 0-0.602-0.602-1.204-1.204-1.204-0.722 0-2.65-1.204-4.216-2.771-4.818-4.457-6.504-5.662-7.83-5.662-0.602 0-1.204-0.602-1.204-1.204 0-1.686-5.541-7.228-7.228-7.228-0.602 0-1.204-0.602-1.204-1.325 0-1.325-3.011-4.698-4.216-4.698-0.964 0-4.216-3.253-4.216-4.216 0-0.482-0.722-1.566-1.686-2.529s-2.048-1.686-2.529-1.686c-1.204 0-4.216-3.373-4.216-4.698 0-0.722-0.482-1.325-1.204-1.325-0.602 0-6.866-5.662-13.973-12.648-6.986-6.986-13.13-12.648-13.732-12.648-0.482 0-10.48-9.516-22.285-21.080-11.684-11.564-21.803-21.080-22.405-21.080s-1.084-0.602-1.084-1.325c0-1.325-3.011-4.698-4.216-4.698s-4.216-3.373-4.216-4.698c0-0.722-0.602-1.325-1.204-1.325-1.566 0-3.253-1.325-12.046-9.998-3.855-3.734-7.709-6.866-8.432-6.866-0.602 0-1.204-0.602-1.204-1.204 0-0.722-1.325-2.65-3.011-4.216-1.566-1.686-3.493-3.011-4.216-3.011-0.602 0-1.204-0.602-1.204-1.325 0-1.325-3.011-4.698-4.216-4.698-0.964 0-4.216-3.253-4.216-4.216s-3.253-4.216-4.216-4.216c-1.204 0-4.216-3.373-4.216-4.698 0-0.722-0.602-1.325-1.325-1.325s-4.457-3.131-8.311-6.986c-9.035-8.673-10.48-9.877-12.046-9.877-0.602 0-1.204-0.602-1.204-1.325 0-1.325-2.891-4.698-4.095-4.698-0.24 0-10.119-9.516-21.803-21.080-11.564-11.564-21.441-21.080-21.803-21.080-1.204 0-4.095-3.373-4.095-4.698 0-0.722-0.722-1.325-1.686-1.325s-9.395-7.589-18.671-16.864c-9.395-9.275-17.586-16.864-18.189-16.864-0.722 0-1.204-0.602-1.204-1.325 0-1.325-3.011-4.698-4.216-4.698-0.964 0-4.216-3.253-4.216-4.216s-3.253-4.216-4.216-4.216c-0.722 0-5.782-4.577-17.466-16.021-3.855-3.734-7.709-6.866-8.432-6.866-0.602 0-1.204-0.602-1.204-1.325 0-1.325-3.011-4.698-4.216-4.698-0.964 0-4.216-3.253-4.216-4.216s-3.131-4.216-4.095-4.216c-0.362 0-7.107-6.384-15.057-14.214-16.503-16.141-17.586-17.105-19.394-17.105-0.602 0-1.204-0.602-1.204-1.325 0-1.325-2.891-4.698-4.095-4.698-0.24 0-8.673-8.191-18.671-18.068-9.998-9.998-18.792-18.068-19.394-18.068-0.722 0-1.204-0.602-1.204-1.325 0-1.325-3.011-4.698-4.216-4.698s-4.216-3.373-4.216-4.698c0-0.722-0.722-1.325-1.686-1.325s-7.468-5.662-14.455-12.648c-7.107-6.986-13.371-12.648-13.973-12.648-0.722 0-1.204-0.602-1.204-1.325 0-1.325-3.011-4.698-4.216-4.698s-6.625-5.782-6.625-7.228c0-0.602-0.602-1.204-1.325-1.204-1.325 0-4.698-3.011-4.698-4.216 0-0.964-3.253-4.216-4.216-4.216-0.362 0-3.373-2.529-6.625-5.782-8.913-8.432-12.286-11.564-14.335-13.010-1.566-1.084-3.855 0.602-13.13 9.877z"></path>
</svg>
