<?xml version="1.0" standalone="no"?>
<!DOCTYPE svg PUBLIC "-//W3C//DTD SVG 20010904//EN"
 "http://www.w3.org/TR/2001/REC-SVG-20010904/DTD/svg10.dtd">
<svg version="1.0" xmlns="http://www.w3.org/2000/svg"
 width="840.000000pt" height="859.000000pt" viewBox="0 0 840.000000 859.000000"
 preserveAspectRatio="xMidYMid meet">

<g transform="translate(0.000000,859.000000) scale(0.100000,-0.100000)"
fill="#000000" stroke="none">
<path d="M2242 8454 c-51 -52 -95 -94 -98 -94 -10 0 -34 -28 -34 -39 0 -6 -5
-11 -11 -11 -6 0 -26 -16 -45 -35 -18 -19 -36 -35 -39 -35 -3 0 -21 -16 -39
-35 -19 -19 -39 -35 -45 -35 -6 0 -11 -5 -11 -11 0 -11 -25 -39 -35 -39 -8 0
-35 -27 -35 -35 0 -8 -27 -35 -35 -35 -8 0 -35 -27 -35 -35 0 -8 -27 -35 -35
-35 -10 0 -35 -28 -35 -39 0 -6 -5 -11 -11 -11 -13 0 -79 -67 -79 -80 0 -6 5
-10 10 -10 6 0 10 -5 10 -11 0 -11 25 -39 35 -39 6 0 48 -38 145 -132 32 -32
62 -58 65 -58 8 0 35 -27 35 -35 0 -8 27 -35 35 -35 10 0 35 -28 35 -39 0 -6
5 -11 11 -11 11 0 39 -25 39 -35 0 -8 26 -35 34 -35 3 0 44 -37 91 -82 103
-100 111 -108 125 -108 5 0 10 -6 10 -13 0 -7 12 -21 26 -32 15 -11 104 -96
199 -190 94 -93 184 -179 199 -190 15 -11 77 -68 137 -127 60 -60 112 -108
115 -108 8 0 34 -27 34 -35 0 -8 27 -35 35 -35 10 0 35 -28 35 -39 0 -6 5 -11
10 -11 14 0 60 -46 60 -60 0 -5 5 -10 10 -10 11 0 43 -28 150 -132 32 -32 62
-58 65 -58 8 0 35 -27 35 -35 0 -8 27 -35 35 -35 10 0 35 -28 35 -39 0 -6 4
-11 10 -11 5 0 63 -53 129 -117 128 -125 147 -143 155 -143 3 0 84 -79 181
-175 97 -96 178 -175 181 -175 10 0 34 -28 34 -39 0 -6 5 -11 10 -11 12 0 21
-8 143 -125 48 -47 92 -85 97 -85 6 0 10 -5 10 -11 0 -11 25 -39 35 -39 8 0
35 -27 35 -35 0 -8 27 -35 35 -35 10 0 35 -28 35 -39 0 -6 5 -11 10 -11 6 0
22 -11 35 -25 14 -13 25 -29 25 -35 0 -5 5 -10 10 -10 10 0 29 -16 125 -108
19 -17 39 -32 45 -32 5 0 10 -5 10 -11 0 -11 25 -39 35 -39 10 0 35 -28 35
-39 0 -6 4 -11 10 -11 5 0 78 -67 161 -150 83 -82 154 -150 157 -150 15 0 122
-110 122 -125 0 -18 -43 -65 -60 -65 -5 0 -10 -5 -10 -11 0 -11 -25 -39 -35
-39 -8 0 -35 -27 -35 -35 0 -8 -27 -35 -35 -35 -10 0 -35 -28 -35 -39 0 -6 -5
-11 -10 -11 -14 0 -60 -46 -60 -60 0 -5 -5 -10 -11 -10 -6 0 -26 -16 -45 -35
-18 -19 -40 -35 -49 -35 -8 0 -15 -5 -15 -10 0 -14 -46 -60 -60 -60 -5 0 -10
-5 -10 -11 0 -11 -25 -39 -35 -39 -8 0 -35 -27 -35 -35 0 -8 -26 -35 -34 -35
-3 0 -69 -63 -146 -140 -77 -77 -144 -140 -149 -140 -5 0 -68 -58 -140 -130
-73 -72 -136 -130 -141 -130 -6 0 -10 -5 -10 -11 0 -11 -25 -39 -35 -39 -8 0
-35 -27 -35 -35 0 -8 -27 -35 -35 -35 -10 0 -35 -28 -35 -39 0 -6 -5 -11 -10
-11 -11 0 -29 -15 -110 -92 -27 -27 -54 -48 -60 -48 -5 0 -10 -5 -10 -10 0
-14 -46 -60 -60 -60 -5 0 -10 -5 -10 -11 0 -11 -25 -39 -35 -39 -8 0 -35 -27
-35 -35 0 -8 -27 -35 -35 -35 -10 0 -35 -28 -35 -39 0 -6 -5 -11 -10 -11 -6 0
-49 -37 -95 -83 -114 -111 -133 -127 -145 -127 -5 0 -10 -5 -10 -11 0 -11 -24
-39 -34 -39 -3 0 -70 -64 -149 -142 -79 -79 -156 -152 -170 -163 -15 -11 -27
-25 -27 -32 0 -7 -5 -13 -10 -13 -15 0 -23 -8 -161 -142 -65 -65 -124 -118
-129 -118 -6 0 -10 -5 -10 -11 0 -11 -25 -39 -35 -39 -8 0 -35 -27 -35 -35 0
-8 -27 -35 -35 -35 -10 0 -35 -28 -35 -39 0 -6 -4 -11 -10 -11 -10 0 -52 -36
-121 -102 -21 -21 -43 -38 -49 -38 -5 0 -10 -5 -10 -11 0 -11 -25 -39 -35 -39
-8 0 -35 -27 -35 -35 0 -9 -27 -35 -36 -35 -8 0 -54 -52 -54 -62 0 -5 -4 -8
-10 -8 -5 0 -60 -49 -122 -109 -137 -134 -156 -151 -162 -151 -13 0 -276 -272
-276 -285 0 -16 22 -45 35 -45 10 0 35 -28 35 -39 0 -6 5 -11 10 -11 11 0 29
-15 110 -93 27 -26 54 -47 60 -47 5 0 10 -5 10 -10 0 -14 46 -60 60 -60 5 0
10 -5 10 -11 0 -11 25 -39 35 -39 8 0 35 -27 35 -35 0 -8 27 -35 35 -35 10 0
35 -28 35 -39 0 -6 5 -11 10 -11 6 0 33 -21 61 -47 28 -27 61 -58 74 -70 13
-13 29 -23 35 -23 5 0 10 -5 10 -11 0 -13 25 -39 38 -39 6 0 12 -5 14 -12 3
-7 57 40 122 105 65 64 122 117 127 117 5 0 9 7 9 15 0 8 4 15 10 15 14 0 45
27 172 153 60 59 111 107 114 107 8 0 34 27 34 35 0 8 27 35 35 35 10 0 35 28
35 39 0 6 5 11 10 11 14 0 60 46 60 60 0 5 5 10 10 10 6 0 22 10 35 22 40 38
54 48 65 48 5 0 10 5 10 10 0 14 46 60 60 60 5 0 10 5 10 11 0 11 25 39 35 39
8 0 35 27 35 35 0 8 27 35 35 35 10 0 35 28 35 39 0 6 4 11 10 11 5 0 57 47
116 105 58 58 112 105 120 105 8 0 14 5 14 11 0 11 24 39 34 39 2 0 84 79 181
175 97 96 179 175 182 175 9 0 33 29 33 39 0 6 5 11 10 11 12 0 29 15 145 128
47 45 90 82 95 82 6 0 10 5 10 11 0 11 25 39 35 39 8 0 35 27 35 35 0 8 27 35
35 35 10 0 35 28 35 39 0 6 5 11 10 11 6 0 42 32 80 70 38 38 77 70 85 70 8 0
15 5 15 11 0 11 25 39 35 39 8 0 35 27 35 35 0 8 27 35 35 35 10 0 35 28 35
39 0 6 4 11 10 11 5 0 78 68 161 150 83 83 154 150 159 150 4 0 67 58 139 130
73 71 136 130 141 130 6 0 10 5 10 11 0 11 25 39 35 39 8 0 35 27 35 35 0 8
27 35 35 35 10 0 35 28 35 39 0 6 5 11 10 11 11 0 29 15 110 93 27 26 54 47
60 47 5 0 10 5 10 11 0 11 25 39 35 39 8 0 35 27 35 35 0 8 27 35 35 35 10 0
35 28 35 39 0 6 5 11 10 11 14 0 60 46 60 60 0 5 5 10 11 10 5 0 41 32 80 70
38 38 76 70 84 70 8 0 15 5 15 11 0 10 24 39 33 39 3 0 86 80 184 178 99 97
192 186 206 197 15 11 27 25 27 32 0 7 6 13 14 13 7 0 50 36 95 80 l81 80 -50
50 c-27 27 -54 50 -60 50 -5 0 -10 5 -10 11 0 12 -50 59 -62 59 -5 0 -8 5 -8
11 0 11 -25 39 -35 39 -10 0 -35 28 -35 39 0 6 -5 11 -10 11 -14 0 -60 46 -60
60 0 5 -5 10 -10 10 -6 0 -22 10 -35 23 -40 37 -54 47 -65 47 -5 0 -10 5 -10
10 0 14 -46 60 -60 60 -5 0 -10 5 -10 11 0 11 -25 39 -35 39 -8 0 -35 27 -35
35 0 4 -6 13 -14 21 -8 8 -17 14 -21 14 -10 0 -35 28 -35 39 0 6 -4 11 -10 11
-5 0 -57 47 -116 105 -58 58 -109 105 -114 105 -4 0 -87 79 -185 175 -97 96
-181 175 -186 175 -5 0 -9 5 -9 11 0 11 -25 39 -35 39 -10 0 -35 28 -35 39 0
6 -5 11 -10 11 -13 0 -27 11 -100 83 -32 31 -64 57 -70 57 -5 0 -10 5 -10 10
0 6 -11 22 -25 35 -13 14 -29 25 -35 25 -5 0 -10 5 -10 11 0 11 -25 39 -35 39
-8 0 -35 27 -35 35 0 8 -27 35 -35 35 -10 0 -35 28 -35 39 0 6 -5 11 -11 11
-6 0 -37 26 -69 58 -75 72 -87 82 -100 82 -5 0 -10 5 -10 11 0 11 -24 39 -34
39 -2 0 -84 79 -181 175 -96 96 -178 175 -181 175 -10 0 -34 28 -34 39 0 6 -6
11 -14 11 -8 0 -78 63 -155 140 -78 77 -146 140 -151 140 -6 0 -10 5 -10 11 0
11 -25 39 -35 39 -8 0 -35 27 -35 35 0 8 -27 35 -35 35 -6 0 -48 38 -145 133
-32 31 -64 57 -70 57 -5 0 -10 5 -10 11 0 11 -25 39 -35 39 -8 0 -35 27 -35
35 0 8 -26 35 -34 35 -3 0 -59 53 -125 118 -137 134 -146 142 -161 142 -5 0
-10 5 -10 11 0 11 -24 39 -34 39 -2 0 -72 68 -155 150 -83 83 -156 150 -161
150 -6 0 -10 5 -10 11 0 11 -25 39 -35 39 -10 0 -35 28 -35 39 0 6 -6 11 -14
11 -8 0 -62 47 -120 105 -59 58 -111 105 -116 105 -6 0 -10 5 -10 11 0 11 -25
39 -35 39 -10 0 -55 48 -55 60 0 5 -5 10 -11 10 -11 0 -39 25 -39 35 0 8 -27
35 -35 35 -3 0 -28 21 -55 48 -74 70 -102 96 -119 108 -13 9 -32 -5 -109 -82z"/>
</g>
</svg>
