<svg display="none" xmlns="http://www.w3.org/2000/svg">
      <symbol id="fly" viewBox="0 0 1024 1024">
        <path
          d="M402.786 12.314c-95.213 20.536-176.423 66.276-250.166 140.018-203.493 203.493-203.493 515.267 0 718.76s515.267 203.493 718.76 0c203.493-203.493 203.493-515.267 0-718.76-126.95-126.95-295.905-177.357-468.594-140.018zM617.481 30.983c193.225 41.072 350.979 210.028 381.783 407.92 49.473 322.976-237.098 608.613-559.14 560.073-210.96-32.671-382.717-204.427-415.388-415.388-23.337-154.020 27.070-305.24 139.084-416.321 127.884-126.017 282.836-172.689 453.659-136.285z"
        ></path>
        <path
          d="M594.144 378.228c6.534 2.801 14.936 1.867 17.735-0.934 3.734-2.801-1.867-5.6-12.135-4.668-10.268 0-13.069 2.801-5.6 5.6z"
        ></path>
        <path
          d="M556.806 387.563c6.534 2.801 14.936 1.867 17.735-0.934 3.734-2.801-1.867-5.6-12.135-4.668-10.268 0-13.069 2.801-5.6 5.6z"
        ></path>
        <path
          d="M327.176 438.903l-188.558 46.672 70.009 75.61 70.009 76.544v53.207c0 29.87 1.867 54.141 4.668 54.141 3.734 0 18.669-6.534 34.538-14.936l29.87-15.868 59.741 66.276 58.807 66.276 136.285-183.891c74.677-100.813 146.553-197.893 159.62-214.695 12.135-15.868 20.536-29.87 18.669-29.87-2.801 0-75.61 90.545-162.421 201.626l-156.821 201.626-49.473-55.074c-63.475-69.075-99.879-114.815-95.213-118.548 1.867-1.867 56.008-37.338 120.415-80.277 64.409-42.006 121.349-81.211 126.017-85.878 5.6-4.668-56.008 23.337-135.351 61.608l-144.686 70.943-55.074-56.008c-30.804-29.87-54.141-56.94-51.34-59.741s84.011-26.136 181.090-53.207c98.012-26.136 179.224-49.473 181.090-51.34 9.334-8.401-33.605 0-211.894 44.806z"
        ></path>
      </symbol>

      <symbol id="moneybox" viewBox="0 0 1024 1024">
      <path d="M402.786 12.315c-95.213 20.536-176.423 66.276-250.166 140.018-203.493 203.493-203.493 515.267 0 718.76s515.267 203.493 718.76 0c203.493-203.493 203.493-515.267 0-718.76-126.95-126.95-295.905-177.357-468.594-140.018zM617.481 30.984c193.225 41.072 350.979 210.028 381.783 407.92 49.473 322.976-237.098 608.613-559.14 560.073-210.96-32.671-382.717-204.427-415.388-415.388-23.337-154.020 27.070-305.24 139.084-416.321 127.884-126.017 282.836-172.689 453.659-136.285z"></path>
      <path d="M601.611 241.011c37.338 14.936 61.608 56.94 56.94 95.213-2.801 19.602-0.934 35.472 3.734 35.472s8.401-18.669 8.401-41.072c0-32.671-5.6-46.672-27.070-70.009-14.936-15.868-34.538-28.937-44.806-28.003-14.936 0-14.002 0.934 2.801 8.401z"></path>
      <path d="M294.505 325.956l-26.136 10.268 33.605 36.404c17.735 19.602 32.671 40.138 32.671 44.806s-12.135 21.47-27.070 37.338c-36.404 39.205-21.47 37.338 15.868-1.867l30.804-30.804-33.605-42.939-32.671-42.939 28.003-6.534c33.605-7.467 84.945 8.401 107.348 32.671 14.002 15.868 24.27 17.735 65.342 13.069 83.078-10.268 186.691 30.804 230.564 90.545 10.268 13.069 23.337 43.873 30.804 70.009 6.534 25.204 13.069 36.404 13.069 25.204 0.934-11.202 5.6-23.337 10.268-26.136 12.135-7.467 12.135-60.674 0-60.674-5.6 0-7.467 10.268-3.734 23.337 8.401 34.538-2.801 28.003-24.27-13.069-39.205-77.476-137.218-126.95-240.832-121.349-43.873 2.801-58.807 0-84.011-18.669-35.472-25.204-88.678-32.671-126.017-18.669z"></path>
      <path d="M367.314 474.375c-2.801 4.668-0.934 9.334 3.734 9.334 5.6 0 10.268-4.668 10.268-9.334 0-5.6-1.867-9.334-3.734-9.334-2.801 0-7.467 3.734-10.268 9.334z"></path>
      <path d="M245.965 493.978c-10.268 14.936-0.934 17.735 12.135 2.801 6.534-7.467 7.467-13.069 2.801-13.069s-12.135 4.668-14.936 10.268z"></path>
      <path d="M746.297 601.325c0 10.268 2.801 13.069 5.6 5.6 2.801-6.534 1.867-14.936-0.934-17.735-2.801-3.734-5.6 1.867-4.668 12.135z"></path>
      <path d="M320.642 670.401c19.602 20.536 38.271 37.338 41.072 37.338s-12.135-16.802-31.738-37.338c-19.602-20.536-38.271-37.338-41.072-37.338s12.135 16.802 31.738 37.338z"></path>
      <path d="M355.179 749.744c0 14.936 1.867 20.536 4.668 11.202 1.867-8.401 1.867-21.47 0-28.003-2.801-5.6-4.668 0.934-4.668 16.802z"></path></symbol>
</svg>
