    <svg display="none" xmlns="http://www.w3.org/2000/svg">
      <symbol id="fly" viewBox="0 0 1024 1024">
        <path
          d="M402.786 12.314c-95.213 20.536-176.423 66.276-250.166 140.018-203.493 203.493-203.493 515.267 0 718.76s515.267 203.493 718.76 0c203.493-203.493 203.493-515.267 0-718.76-126.95-126.95-295.905-177.357-468.594-140.018zM617.481 30.983c193.225 41.072 350.979 210.028 381.783 407.92 49.473 322.976-237.098 608.613-559.14 560.073-210.96-32.671-382.717-204.427-415.388-415.388-23.337-154.020 27.070-305.24 139.084-416.321 127.884-126.017 282.836-172.689 453.659-136.285z"
        ></path>
        <path
          d="M594.144 378.228c6.534 2.801 14.936 1.867 17.735-0.934 3.734-2.801-1.867-5.6-12.135-4.668-10.268 0-13.069 2.801-5.6 5.6z"
        ></path>
        <path
          d="M556.806 387.563c6.534 2.801 14.936 1.867 17.735-0.934 3.734-2.801-1.867-5.6-12.135-4.668-10.268 0-13.069 2.801-5.6 5.6z"
        ></path>
        <path
          d="M327.176 438.903l-188.558 46.672 70.009 75.61 70.009 76.544v53.207c0 29.87 1.867 54.141 4.668 54.141 3.734 0 18.669-6.534 34.538-14.936l29.87-15.868 59.741 66.276 58.807 66.276 136.285-183.891c74.677-100.813 146.553-197.893 159.62-214.695 12.135-15.868 20.536-29.87 18.669-29.87-2.801 0-75.61 90.545-162.421 201.626l-156.821 201.626-49.473-55.074c-63.475-69.075-99.879-114.815-95.213-118.548 1.867-1.867 56.008-37.338 120.415-80.277 64.409-42.006 121.349-81.211 126.017-85.878 5.6-4.668-56.008 23.337-135.351 61.608l-144.686 70.943-55.074-56.008c-30.804-29.87-54.141-56.94-51.34-59.741s84.011-26.136 181.090-53.207c98.012-26.136 179.224-49.473 181.090-51.34 9.334-8.401-33.605 0-211.894 44.806z"
        ></path>
      </symbol>
    </svg>
