<svg display="none" xmlns="http://www.w3.org/2000/svg">
<symbol id="advokatskoye-byuro" viewBox="0 0 3405 1024"><path fill="#9b192c" d="M268.9 803.2v-582.4c0-61.856-50.144-112-112-112v0h-156.8v2.304c51.2 10.24 89.6 55.552 89.6 109.696v582.4c0 61.856 50.144 112 112 112v0h156.8v-2.304c-51.2-10.24-89.6-55.552-89.6-109.696z"></path>
<path fill="#4d4e4c" d="M1971.3 915.2h12.8v-806.4h-12.8z"></path>
<path fill="#9b192c" d="M2129.124 109.824c17.28 0 23.040-0.768 27.776-0.768 2.048 0 3.584 0.128 4.48 1.792 1.28 2.048 3.2 16.64 3.2 21.248 0 2.048-1.792 4.992-3.328 4.992-2.304 0-4.096-2.688-8.448-11.52-2.688-5.888-6.016-6.912-7.040-6.912-11.008 0-26.24 0.512-28.928 0.512-0.64 0-2.048 2.56-2.176 3.712-0.64 5.76-0.768 24.448-0.768 38.656 0 1.664 0.768 5.76 2.56 5.76 1.664 0 9.472 0.256 12.672 0 12.8-0.64 15.104-2.816 17.28-8.832 1.536-4.352 2.688-6.016 4.736-6.016 2.56 0 3.456 2.944 3.072 8.32-0.385 4.033-0.604 8.721-0.604 13.459 0 3.596 0.126 7.163 0.375 10.696l-0.027-0.476c0.384 5.376-1.92 6.784-3.072 6.784-1.28 0-3.328-1.024-4.608-5.12-2.048-6.016-3.584-8.064-7.68-8.448-7.936-0.64-13.44-0.64-22.144-0.64-1.28 0-2.56 3.456-2.56 5.12 0 19.2 0.384 25.984 0.512 30.592 0.384 5.888 1.536 9.984 2.432 10.624 1.664 1.664 7.296 4.224 22.4 4.224 7.936 0 10.24-0.256 14.72-1.664 5.376-1.664 8.448-5.632 12.8-12.16 3.072-5.632 4.48-8.064 6.784-8.064 2.944 0 2.944 5.376 2.176 9.216-1.28 6.016-5.376 15.872-6.144 17.792-1.152 2.816-5.632 4.096-6.4 4.096-7.936 0-13.44-1.024-48.896-1.024-12.288 0-24.96 1.024-33.28 1.024-4.992 0-7.296-0.768-7.296-2.56 0-2.432 2.304-4.48 6.4-5.504 12.544-3.072 14.592-4.864 15.232-12.8 0.64-5.504 0.768-10.624 0.768-20.992 0-31.744-0.384-64.768-1.024-68.48-0.512-6.4-4.48-7.936-12.16-9.984-3.328-0.896-5.376-2.944-5.376-4.352 0-2.56 2.816-3.328 5.376-3.328 3.2 0 13.184 1.024 26.112 1.024h20.096zM2209.124 109.184c5.76 0 14.592 0.896 28.288 0.896h20.224c24.576 0 29.696-1.28 30.464-1.28 1.664 0 3.072 2.304 3.072 4.096l0.128 23.296c0 5.76-2.56 7.040-3.84 7.040s-2.944-1.28-3.84-5.632c-2.944-13.312-6.144-17.92-12.672-18.304-5.376-0.384-12.544 0-30.080 0-1.536 0-2.56 2.304-2.816 3.712-2.304 22.272-0.64 70.784-0.64 92.16 0 8.96 3.84 10.88 11.648 12.928 4.992 1.536 6.4 3.584 6.4 5.12 0 1.92-1.664 3.584-5.248 3.584-5.504 0-19.072-1.024-26.624-1.024-3.968 0-10.624 0.768-16.64 0.768-3.2 0-5.248-0.512-5.248-3.072 0-2.176 2.56-3.84 6.4-5.12 7.808-2.56 10.496-5.504 10.88-11.136 0.64-6.144 1.28-15.36 1.28-42.752 0-30.848 0-37.888-0.512-47.104-0.512-6.656-3.968-8.064-11.264-10.24-2.816-0.768-5.248-2.56-5.248-4.352 0-2.176 2.304-3.584 5.888-3.584zM2342.884 128.64c-9.79 10.175-15.821 24.030-15.821 39.292 0 1.037 0.028 2.067 0.083 3.090l-0.006-0.143c0 27.776 19.712 57.344 52.096 57.344 9.6 0 19.2-2.944 26.112-8.96 8.448-7.68 16.256-22.016 16.256-46.080 0-28.16-19.712-56.064-51.072-56.064-10.112 0-21.376 5.76-27.648 11.52zM2444.9 172.288c0 20.992-11.904 43.904-35.2 56.192-8.96 4.736-21.76 8.32-35.328 8.32-39.68 0-70.272-28.672-70.272-63.488 0-15.36 6.528-32 19.072-43.904 12.8-12.16 32.384-20.608 51.2-20.608 39.168 0 70.528 26.496 70.528 63.488zM2532.708 127.488c-5.76-6.912-16.128-10.496-27.264-10.496-2.304 0-4.608 0.64-5.504 1.408-0.64 0.64-1.408 1.92-1.408 2.944-0.256 4.096-0.896 18.304-0.896 46.080v42.24c0 14.080 1.28 16 15.744 19.328 2.944 0.64 4.608 1.792 4.608 4.096 0 2.048-3.072 3.328-5.632 3.328-6.4 0-10.752-0.896-19.328-0.896-7.68 0-21.76 1.28-28.8 1.28-2.944 0-6.528-1.28-6.528-3.328 0-2.176 1.408-3.2 6.144-4.48 11.264-3.072 11.264-4.992 12.928-15.872 0.64-4.736 1.92-23.040 1.92-59.52 0-16 0-23.424-0.64-28.16-0.384-4.736-5.12-6.016-12.8-8.064-3.328-0.768-5.632-2.816-5.632-4.864 0-2.56 1.664-3.072 5.12-3.072 4.992 0 17.92 0.64 20.736 0.64 7.168 0 16-1.28 26.24-1.28 18.304 0 30.976 5.504 38.144 12.8 6.016 6.4 10.24 17.152 10.24 27.008 0 13.568-6.4 22.912-12.032 28.032-8.576 8.192-22.016 11.264-29.184 11.264-1.408 0-5.12 0.256-7.296-1.408-1.152-0.64-3.456-2.688-3.456-3.84 0-1.536 1.536-2.304 2.304-2.56l4.608-0.64c10.752-0.128 24.832-8.96 24.832-29.184 0-9.216-2.944-17.92-7.168-22.784zM2624.484 128.64c-9.79 10.175-15.821 24.030-15.821 39.292 0 1.037 0.028 2.067 0.083 3.090l-0.006-0.143c0 27.776 19.712 57.344 52.096 57.344 9.6 0 19.2-2.944 26.112-8.96 8.448-7.68 16.256-22.016 16.256-46.080 0-28.16-19.712-56.064-51.072-56.064-10.112 0-21.376 5.76-27.648 11.52zM2726.5 172.288c0 20.992-11.904 43.904-35.2 56.192-8.96 4.736-21.76 8.32-35.328 8.32-39.68 0-70.272-28.672-70.272-63.488 0-15.36 6.528-32 19.072-43.904 12.8-12.16 32.384-20.608 51.2-20.608 39.168 0 70.528 26.496 70.528 63.488zM2786.276 116.992c-2.432 0-5.504 0.64-6.4 1.024-0.768 0.384-1.536 1.28-1.664 3.328-0.337 6.117-0.529 13.276-0.529 20.48s0.192 14.363 0.571 21.473l-0.042-0.993c0.128 1.28 2.688 2.048 5.248 2.048 10.24 0 18.944-1.792 21.76-3.2 1.92-1.28 8.96-7.168 8.96-20.096 0-12.416-7.68-24.064-27.904-24.064zM2789.86 172.16c-3.072 0-8.32 0.64-9.344 1.024-1.324 1.307-2.244 3.022-2.553 4.941l-0.007 0.051c-0.512 4.096-0.512 31.744 0.768 38.4 1.664 7.296 12.8 12.288 16.384 12.288 9.125-0.552 17.065-5.183 22.086-12.076l0.058-0.084c2.176-4.992 4.096-10.624 4.096-17.024 0-19.2-14.72-27.52-31.488-27.52zM2826.084 156.416c-1.536 2.048-7.296 5.76-11.264 7.424-0.384 0.128 0.256 2.176 1.28 2.56 13.952 4.608 25.6 15.872 25.6 31.232 0 20.096-12.8 29.952-24.32 34.56-8.064 3.2-18.048 4.608-26.88 4.608-12.288 0-22.784-0.768-30.72-1.024-6.656-0.256-10.24 0.384-14.080 0.384-2.56 0-6.4-1.28-6.4-3.456 0-3.072 2.304-4.096 7.552-5.376 7.808-1.792 12.032-2.176 12.928-13.312 0.384-3.712 0.768-4.48 0.768-49.664 0-11.008 0.256-30.080-0.384-36.224-0.512-7.040-2.304-8.96-13.184-10.24-2.176-0.256-4.864-1.92-4.864-4.352 0-2.048 2.688-3.328 7.68-3.328h9.984c7.168 0 19.328-1.408 32.64-1.408 14.336 0 24.064 3.84 29.184 8.192 6.912 5.504 10.624 14.080 10.624 22.4 0 7.68-2.432 12.8-6.144 17.024zM2080.1 339.2c11.392 0 18.432 0.768 23.808 0.768h83.328c7.68 0 16-0.768 19.968-0.768 3.84 0 5.504 1.664 5.504 3.456 0 1.92-1.536 3.2-6.656 4.352-8.192 1.92-9.856 4.736-10.112 9.728-0.384 7.68-0.768 25.984-0.768 45.184 0 17.92 0 35.328 0.768 43.392 1.024 9.856 3.328 10.752 12.288 13.184 4.352 1.024 6.272 3.072 6.272 4.992 0 2.304-1.92 3.328-5.76 3.328-3.712 0-13.184-0.64-20.48-0.64-10.24 0-17.792 0.64-23.68 0.64-4.736 0-6.912-1.536-6.912-3.072 0-2.176 1.792-3.968 6.272-5.12 10.24-2.56 11.648-4.864 12.416-13.696 0.768-7.296 2.048-85.504 0.384-93.44-0.384-1.28-1.92-2.176-2.304-2.176-29.696 0-57.088 0-61.056 0.64-1.28 0.128-2.176 2.304-2.176 2.816-0.768 9.088-0.64 90.112-0.128 94.464 0.896 6.528 3.328 8.576 14.72 12.16 2.432 0.64 4.608 2.56 4.608 4.352 0 2.176-1.792 3.072-6.784 3.072-5.632 0-11.264-0.64-19.712-0.64-6.4 0-17.792 1.024-23.68 1.024-4.352 0-6.4-0.768-6.4-3.072s2.176-3.84 6.016-4.992c10.112-2.56 11.52-5.504 12.032-14.464 0.64-8.96 0.64-34.56 0.64-64.128 0-15.488-0.512-23.040-1.28-25.856-0.768-3.456-2.304-5.12-13.184-8.32-2.176-0.512-4.352-1.792-4.352-4.096 0-1.792 2.56-3.072 6.4-3.072zM2232.932 339.2c3.84 0 11.776 1.024 20.864 1.024 6.656 0 14.72-0.64 18.944-0.64 2.56 0 6.144 1.28 6.144 3.584 0 2.048-2.432 3.328-4.992 4.096-6.4 1.792-8.576 3.712-7.424 6.656 6.4 14.72 21.76 44.8 29.056 59.904 0.384 1.024 1.792 0.512 2.176-0.128 7.59-14.531 15.238-32.154 21.711-50.334l0.945-3.042c3.2-8.832 2.048-10.88-7.936-13.056-2.048-0.384-4.608-2.432-4.608-4.096 0-2.176 2.432-3.328 5.376-3.328 4.096 0 9.984 0.384 16.256 0.384 5.504 0 16.256-0.64 20.48-0.64 2.432 0 5.376 1.28 5.376 3.84 0 1.664-2.688 3.2-5.248 3.584-9.856 1.664-14.592 6.4-18.816 15.872-8.448 19.2-17.664 38.4-29.824 62.336-7.040 14.592-19.84 41.984-35.712 41.984-3.84 0-7.68-1.024-9.728-2.56-4.224-2.944-4.608-7.68-4.608-10.368 0-1.28 0.768-5.504 2.944-4.864 3.584 0.896 9.6 1.664 12.928 1.664 10.624 0 15.36-6.016 18.048-13.312 0.138-0.562 0.217-1.208 0.217-1.872 0-0.839-0.126-1.648-0.36-2.41l0.015 0.058c-7.296-17.28-30.72-62.72-35.456-71.68-5.504-10.752-9.472-13.696-17.536-15.232-2.304-0.512-4.864-2.56-4.864-3.84 0-2.816 2.688-3.584 5.632-3.584zM2375.524 339.584c5.76 0 14.592 0.896 28.288 0.896h20.224c24.576 0 29.696-1.28 30.464-1.28 1.664 0 3.072 2.304 3.072 4.096l0.128 23.296c0 5.76-2.56 6.912-3.84 6.912s-3.072-1.28-3.84-5.504c-2.944-13.312-6.144-17.92-12.672-18.304-5.376-0.384-12.544 0-30.080 0-1.536 0-2.56 2.304-2.816 3.712-2.304 22.272-0.64 70.784-0.64 92.16 0 8.96 3.84 10.88 11.648 12.928 4.992 1.536 6.4 3.584 6.4 5.12 0 1.92-1.664 3.584-5.248 3.584-5.504 0-19.072-1.024-26.624-1.024-3.968 0-10.624 0.768-16.64 0.768-3.2 0-5.248-0.512-5.248-3.072 0-2.176 2.56-3.84 6.4-5.12 7.808-2.56 10.496-5.504 10.88-11.136 0.64-6.144 1.28-15.36 1.28-42.752 0-30.848 0-37.888-0.512-47.104-0.512-6.656-3.968-8.064-11.264-10.24-2.816-0.768-5.248-2.56-5.248-4.352 0-2.176 2.304-3.584 5.888-3.584zM2488.932 339.2c5.12 0 14.080 0.768 19.2 0.768 7.68 0 16.512-0.512 21.248-0.512 4.096 0 5.76 1.792 5.76 3.456 0 2.56-2.688 3.84-6.272 4.352-7.68 1.664-8.576 4.352-8.96 11.904-0.512 10.624-0.512 42.368-0.768 67.328 0 1.536 1.28 1.664 1.792 1.28 6.016-5.376 60.16-55.808 65.536-62.976 0.64-0.768 1.408-2.048 1.408-3.328-1.28-8.96 2.304-10.24-12.16-14.080-2.944-0.768-5.504-2.816-5.504-4.48 0-2.56 3.84-3.456 6.4-3.456l22.016 0.512c6.4 0 16.256-0.768 18.56-0.768 4.352 0 6.144 1.664 6.144 3.328s-1.024 3.072-5.12 3.84c-8.832 2.304-12.288 4.864-12.288 9.728-0.256 9.984 0 13.696 0 20.736 0 24.064 0.384 66.432 0.512 68.864 0.256 7.296 2.048 10.24 13.312 13.056 3.2 0.768 4.352 3.072 4.352 4.48 0 2.688-3.072 3.584-7.040 3.584-3.2 0-17.92-0.64-23.296-0.64-4.736 0-15.488 0.64-19.2 0.64-3.328 0-5.504-1.536-5.504-3.584 0-2.176 1.792-3.2 4.352-3.84 11.904-3.072 13.824-4.608 14.080-17.536 0.512-21.504 1.024-39.296 1.024-62.72 0-0.896-1.408-1.92-2.176-1.152l-65.024 62.336c-0.609 0.749-1.055 1.654-1.272 2.646l-0.008 0.042c-0.64 9.088 0.512 12.032 11.264 15.104 2.176 0.64 6.016 2.56 6.016 4.992 0 2.816-5.504 3.712-8.192 3.712-1.92 0-13.696-0.64-20.48-0.64-4.352 0-12.416 1.024-18.688 1.024-4.352 0-6.656-1.28-6.656-3.84 0-1.92 3.328-3.328 5.632-3.968 9.216-2.688 11.776-4.352 12.416-13.056 0.384-6.528 0.512-19.456 0.512-47.36 0-21.376 0.256-35.584-0.768-42.624-0.768-5.76-5.248-7.040-11.776-9.088-4.224-1.408-5.76-2.688-5.76-4.736 0-1.92 2.56-3.328 5.376-3.328zM2688.996 394.752c19.2 0 50.432-0.384 62.208 0.256 0.512 0 2.56-1.92 2.56-2.944 0-5.632 0-32.64-0.896-36.992 0-3.456-6.4-6.016-10.624-7.168-6.4-1.92-7.808-3.328-7.808-4.736 0-2.048 1.792-3.84 5.76-3.84 8.064 0 16 0.64 23.424 0.64 7.68 0 15.744-0.768 19.712-0.768 3.84 0 5.376 1.664 5.376 3.456 0 1.92-1.536 3.2-6.528 4.352-8.064 1.92-9.856 4.736-9.984 9.728-0.384 7.68-0.768 25.984-0.768 45.184 0 17.92 0 35.328 0.768 43.392 1.024 9.856 3.328 10.752 12.032 13.184 4.352 1.024 6.272 3.072 6.272 4.992 0 2.304-1.92 3.328-5.632 3.328s-13.056-0.64-20.224-0.64c-10.24 0-17.536 0.64-23.424 0.64-4.608 0-6.784-1.536-6.784-3.072 0-2.176 1.792-3.968 6.272-5.12 10.112-2.56 11.52-4.864 12.16-13.696 0.768-6.4 1.408-23.552 0.768-31.36-0.384-7.296-1.92-7.68-2.048-7.68-29.184 0-59.648 0-63.36 0.64-1.28 0-2.304 2.048-2.304 2.56 0 27.776 0.256 34.944 0.64 38.144 0.896 6.528 3.2 8.576 14.592 12.16 2.304 0.64 4.48 2.56 4.48 4.352 0 2.176-1.792 3.072-6.656 3.072-5.632 0-11.136-0.64-19.456-0.64-6.272 0-17.536 1.024-23.424 1.024-4.224 0-6.144-0.768-6.144-3.072s2.048-3.84 5.76-4.992c9.984-2.56 11.52-5.504 11.904-14.464 0.64-8.96 0.64-34.56 0.64-64.128 0-15.488-0.384-23.040-1.28-25.856-0.768-3.456-2.304-5.12-13.056-8.32-2.048-0.512-4.224-1.792-4.224-4.096 0-1.792 2.56-3.072 6.272-3.072 11.264 0 18.304 0.768 23.552 0.768 6.016 0 8.704-0.512 15.488-0.512 3.2 0 5.376 1.28 5.376 3.456 0 1.664-2.56 3.328-4.864 3.84-6.4 2.176-9.6 4.48-9.6 12.032 0 6.4 0.256 20.096 0 33.28 0 1.024 1.536 2.56 3.072 2.56zM2913.252 343.040c4.864 1.28 11.264 3.456 12.8 3.456 1.024 0 3.072 2.048 3.072 3.2 0 3.584 1.024 15.36 1.024 20.48 0 5.376-2.176 7.68-4.608 7.68-2.048 0-3.2-3.072-3.968-5.76-1.39-8.322-6.513-15.216-13.555-19.003l-0.141-0.069c-6.381-3.365-13.946-5.34-21.972-5.34-12.043 0-23.048 4.447-31.461 11.789l0.057-0.049c-10.752 9.856-16.64 26.88-16.64 40.96 0 12.8 5.504 30.208 11.648 37.76 10.24 12.672 26.112 19.712 39.168 19.712 5.76 0 15.36-2.56 21.376-5.248 1.792-1.024 7.296-6.144 10.88-12.8 3.2-6.272 4.736-8.832 6.784-8.832 2.176 0 3.584 2.944 3.584 6.784 0 1.792-3.328 14.464-4.608 18.56-0.384 1.28-2.944 3.84-3.584 4.096-10.977 4.033-23.652 6.495-36.863 6.782l-0.129 0.002c-1.097 0.060-2.382 0.094-3.674 0.094-19.65 0-37.466-7.851-50.483-20.586l0.013 0.013c-9.853-11.064-15.874-25.73-15.874-41.801 0-0.154 0.001-0.308 0.002-0.463v0.024c-0.010-0.408-0.015-0.888-0.015-1.37 0-21.305 10.844-40.077 27.313-51.098l0.223-0.14c12.037-7.965 26.813-12.708 42.696-12.708 0.83 0 1.657 0.013 2.48 0.039l-0.12-0.003c9.344 0 17.92 1.92 24.576 3.84zM2952.164 342.528c4.608 0 14.72 0.64 20.992 0.64 5.632 0 14.208-0.64 18.816-0.64 3.456 0 5.76 1.024 5.76 3.2 0 2.56-2.816 3.84-5.76 4.608-6.144 1.664-8.96 2.56-9.472 9.344-0.512 6.272-1.28 30.72-0.384 36.992 0.256 0.512 0.384 1.152 1.664 1.152 11.008 0 16.64-1.792 25.472-14.976 6.144-9.216 8.576-14.592 16.128-25.6 7.040-10.496 16.512-18.048 25.6-18.048 8.064 0 10.88 3.2 10.88 7.68 0 3.712-3.328 8.448-5.76 8.448-2.816 0-4.864-1.28-8.448-1.28-7.936 0-13.184 4.096-21.632 17.408-6.784 11.008-13.056 20.224-16.64 23.808-0.128 0.128-0.384 1.152-0.128 1.536 5.504 8.96 20.224 31.744 30.208 43.904 13.44 16.64 17.664 16.64 28.416 18.944 2.048 0.64 4.224 1.536 4.224 2.944 0 3.456-5.632 4.608-11.52 4.608-16.128 0-25.344-3.2-33.536-13.184-7.846-9.846-15.772-20.949-23.117-32.46l-0.947-1.588c-5.376-8.576-9.984-14.72-19.456-14.72-1.024 0-1.28 1.92-1.28 2.176-0.256 8.96-0.64 31.488 0.256 40.064 0.512 6.016 2.56 8.192 13.44 10.24 3.584 0.64 5.248 2.688 5.248 4.48 0 2.176-2.816 3.456-6.016 3.456-4.224 0-9.984-0.64-16-0.64s-23.68 1.28-29.824 1.28c-2.048 0-5.248-1.664-5.248-3.84 0-2.432 2.432-3.584 6.4-4.608 8.832-1.792 12.416-4.224 13.056-14.976 0.512-10.752 0.768-21.76 0.768-42.112 0-28.672 0-34.048-0.64-41.6-0.128-5.376-5.76-7.168-11.136-8.576-4.864-1.28-6.912-2.432-6.912-5.12 0-2.304 2.816-2.944 6.4-2.944zM3090.532 339.2c5.12 0 14.080 0.768 19.2 0.768 7.68 0 16.512-0.512 21.248-0.512 4.096 0 5.76 1.792 5.76 3.456 0 2.56-2.688 3.84-6.272 4.352-7.68 1.664-8.576 4.352-8.96 11.904-0.512 10.624-0.512 42.368-0.768 67.328 0 1.536 1.28 1.664 1.792 1.28 23.198-21.080 44.551-41.623 65.313-62.749l0.223-0.227c0.64-0.768 1.408-2.048 1.408-3.328-1.28-8.96 2.304-10.24-12.16-14.080-2.944-0.768-5.504-2.816-5.504-4.48 0-2.56 3.84-3.456 6.4-3.456l22.016 0.512c6.4 0 16.256-0.768 18.56-0.768 4.352 0 6.144 1.664 6.144 3.328s-1.024 3.072-5.12 3.84c-8.832 2.304-12.288 4.864-12.288 9.728-0.256 9.984 0 13.696 0 20.736 0 24.064 0.384 66.432 0.512 68.864 0.256 7.296 2.048 10.24 13.312 13.056 3.2 0.768 4.352 3.072 4.352 4.48 0 2.688-3.072 3.584-7.040 3.584-3.2 0-17.92-0.64-23.296-0.64-4.736 0-15.488 0.64-19.2 0.64-3.328 0-5.504-1.536-5.504-3.584 0-2.176 1.792-3.2 4.352-3.84 11.904-3.072 13.824-4.608 14.080-17.536 0.512-21.504 1.024-39.296 1.024-62.72 0-0.896-1.408-1.92-2.176-1.152l-65.024 62.336c-0.609 0.749-1.055 1.654-1.272 2.646l-0.008 0.042c-0.64 9.088 0.512 12.032 11.264 15.104 2.176 0.64 6.016 2.56 6.016 4.992 0 2.816-5.504 3.712-8.192 3.712-1.92 0-13.696-0.64-20.48-0.64-4.352 0-12.416 1.024-18.688 1.024-4.352 0-6.656-1.28-6.656-3.84 0-1.92 3.328-3.328 5.632-3.968 9.216-2.688 11.776-4.352 12.416-13.056 0.384-6.528 0.512-19.456 0.512-47.36 0-21.376 0.256-35.584-0.768-42.624-0.768-5.76-5.248-7.040-11.776-9.088-4.224-1.408-5.888-2.688-5.888-4.736 0-1.92 2.56-3.328 5.504-3.328zM3338.596 315.904c0.256-0.64-2.56-4.224-2.944-5.504-0.896-4.096 2.816-9.6 8.064-9.6 4.096 0 7.040 3.968 7.040 9.216 0 8.576-9.6 20.48-28.16 20.48-16.64 0-25.216-11.52-25.216-19.84 0-5.12 3.712-9.856 8.192-9.856 5.632 0 8.192 6.4 7.168 9.856-0.128 1.024-2.944 5.248-2.944 6.144 0 2.944 5.504 4.736 14.080 4.736 11.264 0 14.72-2.944 14.72-5.632zM3256.932 337.152c5.12 0 14.080 0.768 19.2 0.768 7.68 0 16.512-0.64 21.248-0.64 4.096 0 5.76 1.92 5.76 3.584 0 2.56-2.688 3.84-6.272 4.48-7.68 1.664-8.576 4.352-8.96 12.16-0.512 10.624-0.512 43.008-0.768 68.352 0 1.536 1.28 1.664 1.792 1.28 6.016-5.504 60.16-56.704 65.536-64 0.64-0.896 1.408-2.176 1.408-3.328-1.28-8.96 2.304-10.496-12.16-14.336-2.944-0.768-5.504-2.944-5.504-4.608 0-2.56 3.84-3.584 6.4-3.584s17.28 0.64 22.016 0.64c6.4 0 16.256-0.768 18.56-0.768 4.352 0 6.144 1.664 6.144 3.328s-1.024 3.072-5.12 3.968c-8.832 2.304-12.288 4.864-12.288 9.856-0.256 10.112 0 13.824 0 20.992 0 24.576 0.384 67.584 0.512 70.016 0.256 7.424 2.048 10.24 13.312 13.312 3.2 0.768 4.352 3.072 4.352 4.608 0 2.688-3.072 3.584-7.040 3.584-3.2 0-17.92-0.64-23.296-0.64-4.736 0-15.488 0.64-19.2 0.64-3.328 0-5.504-1.536-5.504-3.584 0-2.304 1.792-3.328 4.352-3.968 11.904-3.2 13.824-4.608 14.080-17.92 0.512-21.76 1.024-39.808 1.024-63.744 0-0.896-1.408-1.92-2.176-1.024l-65.024 63.36c-0.609 0.749-1.055 1.654-1.272 2.646l-0.008 0.042c-0.64 9.216 0.512 12.16 11.264 15.36 2.176 0.64 6.016 2.56 6.016 5.12 0 2.816-5.504 3.712-8.192 3.712-1.92 0-13.696-0.64-20.48-0.64-4.352 0-12.416 1.024-18.688 1.024-4.352 0-6.656-1.28-6.656-3.968 0-1.92 3.328-3.328 5.632-3.968 9.216-2.816 11.776-4.48 12.416-13.312 0.379-10.47 0.595-22.772 0.595-35.125 0-4.616-0.030-9.226-0.090-13.828l0.007 0.697c0-21.504 0.256-36.096-0.768-43.136-0.768-5.888-5.248-7.168-11.776-9.216-4.224-1.536-5.76-2.816-5.76-4.864 0-1.92 2.56-3.328 5.376-3.328zM2144.356 624.64c-2.56-10.112-13.824-36.992-15.36-40.192-0.512-1.28-2.176-1.024-2.56 0-4.608 10.88-10.752 26.88-15.36 40.192-0.128 0.768 0 1.792 1.536 2.048 3.84 0.384 27.136 0.512 30.976 0 0.512 0 1.28-1.28 0.768-2.048zM2144.74 576c10.752 29.312 28.544 72.96 33.28 85.376 4.48 10.496 5.888 11.52 17.408 15.36 4.608 1.408 6.272 3.584 6.272 5.888 0 1.28-2.048 2.176-5.12 2.176-11.008 0-18.944-1.024-29.184-1.024-9.472 0-9.472 0.384-16.128 0.384-3.968 0-5.888-1.28-5.888-2.56 0-1.664 1.024-3.84 4.864-4.864 9.856-2.816 10.624-4.224 8.576-11.52-1.536-5.632-6.912-19.2-9.472-25.216-0.384-1.28-2.944-2.816-5.376-2.816-4.224-0.256-29.312-0.256-35.84 0.384-1.024 0-2.944 1.792-3.328 2.816-2.944 8.32-8.576 23.68-8.576 27.904 0 2.56 0.384 5.376 10.496 8.448 2.688 0.768 4.608 1.664 4.608 3.2 0.256 2.048-2.304 4.48-7.168 4.48-2.304 0-11.264-0.64-17.28-0.64-7.168 0-10.88 1.024-18.816 1.024-3.84 0-6.912-0.768-7.168-3.072 0-1.92 1.92-3.968 6.272-5.12 10.496-2.56 14.080-6.784 16.128-11.136 6.4-13.312 28.416-66.56 38.656-92.928 0.64-1.664 1.28-4.096 1.536-5.632 0-0.64 1.024-2.048 1.408-2.304 2.304-1.536 5.504-3.84 7.552-5.632 1.179-1.077 2.657-1.845 4.295-2.167l0.057-0.009c2.176 0 3.2 5.632 7.936 19.2zM2296.164 582.784c-0.077-0.014-0.166-0.022-0.256-0.022-0.848 0-1.536 0.688-1.536 1.536 0 0.008 0 0.015 0 0.023v-0.001 71.68c0 0.896 0.768 1.408 1.28 1.408 12.032-0.768 21.248-3.328 28.16-9.344 6.912-5.888 10.752-16.256 10.752-26.88 0-20.608-11.904-35.712-38.4-38.4zM2274.276 657.408c0.768 0 1.28-0.384 1.28-1.152l1.024-71.68c0-0.768-1.152-1.92-1.92-1.792-13.44 1.024-21.76 3.2-28.928 9.216-6.4 5.12-10.496 14.208-10.496 25.984 0 19.968 12.416 36.48 39.040 39.424zM2269.156 557.184c6.144 0 9.856 0.384 16 0.384 9.344 0 11.264-0.768 16.64-0.768s6.528 1.792 6.528 3.072c0 1.792-1.408 3.2-6.016 4.352-7.168 1.792-7.936 2.688-7.936 8.832 0 0.768 0.64 1.536 1.664 1.536 30.976 1.28 59.264 14.208 59.264 44.8 0 15.616-8.32 29.696-20.096 36.224-11.52 6.912-24.576 8.96-39.808 9.856-0.64 0-1.024 0.768-1.024 1.536 0.128 7.808 2.048 7.424 9.6 9.344 2.944 1.024 5.504 2.048 5.504 4.352 0 2.56-4.224 3.456-7.68 3.456l-15.616-0.128c-5.632 0-10.496 0.768-17.92 0.768-5.376 0-8.32-0.768-8.32-3.456 0-2.432 2.56-3.328 5.888-4.224 8.832-2.304 9.6-2.56 9.6-10.112 0-0.768-0.384-1.536-1.408-1.536-29.952-1.28-59.52-13.952-59.52-44.928 0-16.256 8.576-27.776 19.456-34.56 12.16-7.424 25.6-10.24 40.96-11.264 0.384 0 1.408-0.384 1.408-1.152 0-7.68-2.688-8.192-7.936-8.96-2.304-0.512-5.504-1.536-5.504-4.096 0-2.176 3.84-3.328 6.4-3.328zM2438.756 624.64c-2.56-10.112-13.824-36.992-15.36-40.192-0.512-1.28-2.176-1.024-2.56 0-4.608 10.88-10.752 26.88-15.36 40.192-0.128 0.768 0 1.792 1.536 2.048 3.84 0.384 27.136 0.512 30.976 0 0.64 0 1.28-1.28 0.768-2.048zM2439.14 576c10.752 29.312 28.544 72.96 33.28 85.376 4.48 10.496 5.888 11.52 17.408 15.36 4.608 1.408 6.272 3.584 6.272 5.888 0 1.28-2.048 2.176-5.12 2.176-11.008 0-18.944-1.024-29.184-1.024-9.472 0-9.472 0.384-16.128 0.384-3.968 0-5.888-1.28-5.888-2.56 0-1.664 1.152-3.84 4.864-4.864 9.856-2.816 10.624-4.224 8.576-11.52-1.536-5.632-6.912-19.2-9.472-25.216-0.384-1.28-2.816-2.816-5.376-2.816-4.224-0.256-29.312-0.256-35.84 0.384-1.024 0-2.816 1.792-3.328 2.816-2.944 8.32-8.576 23.68-8.576 27.904 0 2.56 0.512 5.376 10.496 8.448 2.688 0.768 4.608 1.664 4.608 3.2 0.256 2.048-2.304 4.48-7.168 4.48-2.304 0-11.264-0.64-17.28-0.64-7.168 0-10.88 1.024-18.816 1.024-3.84 0-6.912-0.768-7.168-3.072 0-1.92 1.92-3.968 6.4-5.12 10.24-2.56 13.952-6.784 16-11.136 6.4-13.312 28.416-66.56 38.656-92.928 0.64-1.664 1.28-4.096 1.536-5.632 0-0.64 1.024-2.048 1.408-2.304 2.304-1.536 5.504-3.84 7.552-5.632 1.179-1.077 2.657-1.845 4.295-2.167l0.057-0.009c2.176 0 3.2 5.632 7.936 19.2zM2548.196 612.352c19.2 0 50.432-0.384 62.208 0.128 0.512 0 2.56-1.792 2.56-2.816 0-5.632 0-32.64-0.896-36.992 0-3.456-6.4-6.016-10.624-7.168-6.4-1.92-7.808-3.328-7.808-4.736 0-2.048 1.792-3.84 5.76-3.84 8.064 0 16 0.64 23.424 0.64 7.68 0 15.744-0.768 19.712-0.768 3.84 0 5.376 1.664 5.376 3.456 0 1.92-1.536 3.2-6.528 4.352-8.064 1.92-9.728 4.736-9.984 9.728-0.384 7.68-0.768 25.984-0.768 45.184 0 17.92 0 35.328 0.768 43.392 1.024 9.984 3.328 10.752 12.032 13.184 4.352 1.024 6.272 3.072 6.272 4.992 0 2.304-1.92 3.328-5.632 3.328s-13.056-0.64-20.224-0.64c-10.24 0-17.536 0.64-23.424 0.64-4.608 0-6.784-1.408-6.784-3.072 0-2.176 1.792-3.968 6.272-5.12 10.112-2.56 11.52-4.864 12.16-13.696 0.768-6.4 1.408-23.552 0.768-31.36-0.384-7.296-1.92-7.68-2.048-7.68-29.184 0-59.648 0-63.36 0.64-1.28 0-2.304 2.048-2.304 2.56 0 27.776 0.256 34.944 0.64 38.144 0.896 6.528 3.2 8.576 14.592 12.16 2.304 0.64 4.48 2.56 4.48 4.352 0 2.176-1.792 3.072-6.656 3.072-5.632 0-11.136-0.64-19.456-0.64-6.272 0-17.536 1.024-23.424 1.024-4.224 0-6.144-0.768-6.144-3.072s2.048-3.84 5.76-4.992c9.984-2.56 11.52-5.504 11.904-14.464 0.64-8.96 0.64-34.56 0.64-64.128 0-15.488-0.384-23.040-1.28-25.856-0.768-3.456-2.304-5.12-12.928-8.32-2.176-0.512-4.352-1.792-4.352-4.096 0-1.792 2.56-3.072 6.272-3.072 11.264 0 18.304 0.768 23.552 0.768 6.016 0 8.704-0.512 15.488-0.512 3.2 0 5.376 1.28 5.376 3.456 0 1.664-2.56 3.328-4.864 3.84-6.4 2.176-9.6 4.48-9.6 12.032 0 6.4 0.256 20.096 0 33.28 0 1.024 1.536 2.56 3.072 2.56zM2733.156 624.64c-2.56-10.112-13.824-36.992-15.36-40.192-0.512-1.28-2.176-1.024-2.56 0-4.608 10.88-10.752 26.88-15.36 40.192-0.128 0.768 0 1.792 1.536 2.048 3.84 0.384 27.136 0.512 30.976 0 0.64 0 1.28-1.28 0.768-2.048zM2733.54 576c10.752 29.312 28.544 72.96 33.28 85.376 4.48 10.496 5.888 11.52 17.408 15.36 4.608 1.408 6.272 3.584 6.272 5.888 0 1.28-2.048 2.176-5.12 2.176-11.008 0-18.944-1.024-29.184-1.024-9.472 0-9.472 0.384-16.128 0.384-3.84 0-5.888-1.28-5.888-2.56 0-1.664 1.024-3.84 4.864-4.864 9.856-2.816 10.624-4.224 8.576-11.52-3.397-10.546-6.609-18.896-10.19-27.048l0.718 1.832c-0.384-1.28-2.944-2.816-5.376-2.816-4.224-0.256-29.312-0.256-35.84 0.384-1.024 0-2.816 1.792-3.328 2.816-2.944 8.32-8.576 23.68-8.576 27.904 0 2.56 0.512 5.376 10.496 8.448 2.688 0.768 4.608 1.664 4.608 3.2 0.256 2.048-2.304 4.48-7.168 4.48-2.304 0-11.264-0.64-17.28-0.64-7.168 0-10.88 1.024-18.816 1.024-3.84 0-6.912-0.768-7.168-3.072 0-1.92 1.92-3.968 6.272-5.12 10.496-2.56 14.080-6.784 16.128-11.136 6.4-13.312 28.416-66.56 38.656-92.928 0.64-1.664 1.28-4.096 1.536-5.632 0-0.64 1.024-2.048 1.408-2.304 2.304-1.536 5.504-3.84 7.552-5.632 1.179-1.077 2.657-1.845 4.295-2.167l0.057-0.009c2.176 0 3.2 5.632 7.936 19.2zM2900.452 560.64c4.864 1.28 11.264 3.456 12.8 3.456 1.024 0 3.072 2.048 3.072 3.2 0 3.584 1.024 15.36 1.024 20.48 0 5.376-2.176 7.68-4.608 7.68-2.048 0-3.2-3.072-3.968-5.76-1.39-8.322-6.513-15.216-13.555-19.003l-0.141-0.069c-6.381-3.365-13.946-5.34-21.972-5.34-12.043 0-23.048 4.447-31.461 11.789l0.057-0.049c-10.28 10.576-16.623 25.026-16.64 40.957v0.003c0 12.8 5.504 30.208 11.648 37.76 10.24 12.672 26.112 19.712 39.168 19.712 5.76 0 15.36-2.56 21.376-5.248 1.792-1.024 7.296-6.144 10.88-12.8 3.2-6.272 4.864-8.832 6.784-8.832 2.176 0 3.584 2.944 3.584 6.784 0 1.792-3.328 14.464-4.608 18.56-0.384 1.28-2.944 3.84-3.584 4.096-6.144 3.072-24.832 6.784-36.992 6.784-1.097 0.060-2.382 0.094-3.674 0.094-19.65 0-37.466-7.851-50.483-20.586l0.013 0.013c-9.853-11.047-15.874-25.697-15.874-41.753 0-0.171 0.001-0.342 0.002-0.513v0.026c-0.011-0.433-0.017-0.942-0.017-1.454 0-21.251 10.79-39.983 27.189-51.015l0.22-0.139c12.039-7.968 26.816-12.711 42.702-12.711 0.873 0 1.742 0.014 2.608 0.043l-0.126-0.003c9.344 0 17.92 1.92 24.576 3.84zM2981.86 616.96c-5.376 0-8.704 0.64-9.856 1.28-0.64 0.128-1.664 1.408-2.176 4.096-1.024 6.016 0.384 37.376 0.384 41.984 0.128 7.808 8.96 12.416 14.336 12.416 6.4 0 16-3.584 21.12-9.216 5.12-5.12 8.192-11.904 8.192-21.76 0-14.72-10.24-28.8-32-28.8zM3016.292 676.48c-9.344 6.656-27.648 8.32-34.432 8.32l-24.192-0.384c-7.936-0.256-17.408 0.384-20.608 0.384-2.816 0-5.76-1.28-5.76-3.84 0-1.92 2.432-3.584 4.992-4.224 10.496-2.688 14.464-4.608 15.104-10.624 0.384-4.096 0.896-23.424 1.152-46.848 0.384-23.424-0.256-32.64-0.256-41.088s-1.536-10.368-12.416-13.312c-2.816-0.64-5.376-2.304-5.376-4.352 0-2.56 2.176-3.712 6.912-3.712 4.352 0 14.464 0.384 19.84 0.64 7.68 0.128 13.952-0.64 18.688-0.64 3.84 0 6.912 1.28 6.912 3.584 0 2.176-2.176 3.84-6.528 4.864-7.552 1.664-9.472 4.224-9.984 10.368-0.512 6.4-0.512 20.992-0.512 31.616 0 1.664 1.792 2.56 1.92 2.56 5.76-1.28 13.952-1.792 19.456-1.792 29.184 0 42.496 15.744 42.496 36.608 0 17.408-9.472 26.24-17.408 32zM3114.724 557.824c17.28 0 23.040-0.768 27.776-0.768 2.048 0 3.584 0.128 4.48 1.792 1.28 2.048 3.2 16.64 3.2 21.248 0 2.048-1.792 4.992-3.328 4.992-2.304 0-4.096-2.688-8.448-11.52-2.688-5.888-6.016-6.912-6.912-6.912-11.136 0-26.368 0.384-29.056 0.384-0.64 0-2.048 2.688-2.176 3.84-0.64 5.76-0.768 24.448-0.768 38.656 0 1.664 0.768 5.76 2.56 5.76 1.664 0 9.472 0.256 12.672 0 12.8-0.64 15.104-2.816 17.28-8.832 1.536-4.352 2.688-6.016 4.736-6.016 2.56 0 3.456 2.944 3.072 8.32-0.384 4.034-0.604 8.722-0.604 13.461 0 3.596 0.126 7.162 0.374 10.695l-0.027-0.476c0.512 5.376-1.92 6.784-3.072 6.784-1.28 0-3.328-1.024-4.608-5.12-2.048-6.016-3.584-8.064-7.68-8.448-7.936-0.64-13.44-0.64-22.144-0.64-1.28 0-2.56 3.456-2.56 5.12 0 19.2 0.384 25.984 0.512 30.592 0.384 5.888 1.536 9.984 2.432 10.624 1.664 1.664 7.296 4.224 22.4 4.224 7.936 0 10.24-0.256 14.72-1.664 5.376-1.664 8.448-5.632 12.8-12.16 3.072-5.632 4.352-8.064 6.784-8.064 2.944 0 2.944 5.376 2.176 9.216-1.28 6.016-5.376 15.872-6.144 17.792-1.152 2.816-5.632 4.096-6.4 4.096-7.936 0-13.44-1.024-48.896-1.024-12.288 0-24.96 1.024-33.28 1.024-4.992 0-7.296-0.768-7.296-2.56 0-2.432 2.304-4.48 6.4-5.504 12.544-3.072 14.592-4.864 15.36-12.8 0.367-12.107 0.576-26.349 0.576-40.639 0-17.173-0.302-34.275-0.901-51.302l0.069 2.469c-0.64-6.4-4.608-7.936-12.288-9.984-3.328-0.896-5.376-2.944-5.376-4.352 0-2.56 2.816-3.328 5.376-3.328 3.2 0 13.184 1.024 26.112 1.024h20.096zM3221.476 564.992c-2.432 0-5.504 0.64-6.4 1.024-0.768 0.384-1.536 1.28-1.664 3.328-0.339 6.117-0.532 13.276-0.532 20.48s0.193 14.363 0.574 21.472l-0.042-0.992c0.128 1.28 2.688 2.048 5.248 2.048 10.24 0 18.944-1.792 21.76-3.2 1.92-1.28 8.96-7.168 8.96-20.096 0-12.416-7.68-24.064-27.904-24.064zM3225.060 620.16c-3.072 0-8.32 0.64-9.344 1.024-1.324 1.307-2.244 3.022-2.553 4.941l-0.007 0.051c-0.512 4.096-0.512 31.744 0.768 38.4 1.664 7.296 12.8 12.16 16.384 12.16 9.856 0 20.096-7.936 22.144-12.032 2.176-4.992 4.096-10.624 4.096-17.024 0-19.2-14.72-27.52-31.488-27.52zM3261.284 604.416c-1.536 2.048-7.296 5.76-11.264 7.296-0.384 0.256 0.256 2.304 1.28 2.688 14.080 4.608 25.6 15.872 25.6 31.232 0 20.096-12.8 29.952-24.32 34.56-8.064 3.2-18.048 4.608-26.88 4.608-12.288 0-22.784-0.768-30.72-1.024-6.656-0.256-10.24 0.384-14.080 0.384-2.56 0-6.4-1.28-6.4-3.456 0-3.072 2.432-4.096 7.552-5.376 7.808-1.792 12.032-2.176 12.928-13.312 0.384-3.712 0.768-4.48 0.768-49.664 0-11.008 0.256-30.080-0.384-36.224-0.512-7.040-2.304-8.96-13.184-10.24-2.176-0.256-4.864-1.92-4.864-4.352 0-2.048 2.688-3.328 7.68-3.328h9.984c7.168 0 19.328-1.408 32.64-1.408 14.336 0 24.064 3.84 29.184 8.192 6.912 5.504 10.624 14.080 10.624 22.4 0 7.68-2.432 12.8-6.144 17.024zM2079.332 787.2c5.12 0 14.080 0.768 19.2 0.768 7.68 0 16.512-0.512 21.248-0.512 4.096 0 5.76 1.792 5.76 3.456 0 2.56-2.688 3.84-6.272 4.352-7.68 1.664-8.576 4.352-8.96 11.904-0.512 10.624-0.512 42.368-0.768 67.328 0 1.536 1.28 1.664 1.792 1.28 6.016-5.376 60.16-55.808 65.536-62.976 0.64-0.768 1.408-2.048 1.408-3.328-1.28-8.96 2.304-10.24-12.16-14.080-2.944-0.768-5.504-2.816-5.504-4.48 0-2.56 3.84-3.456 6.4-3.456l22.016 0.512c6.4 0 16.256-0.768 18.56-0.768 4.352 0 6.144 1.664 6.144 3.328s-1.024 3.072-5.12 3.84c-8.832 2.304-12.288 4.864-12.288 9.728-0.256 9.984 0 13.696 0 20.736 0 24.064 0.384 66.432 0.512 68.864 0.256 7.296 2.048 10.24 13.312 13.056 3.2 0.768 4.352 3.072 4.352 4.48 0 2.688-3.072 3.584-7.040 3.584-3.2 0-17.92-0.64-23.296-0.64-4.736 0-15.488 0.64-19.2 0.64-3.328 0-5.504-1.408-5.504-3.584s1.792-3.2 4.352-3.84c11.904-3.072 13.824-4.608 14.080-17.536 0.512-21.504 1.024-39.296 1.024-62.72 0-0.896-1.408-1.92-2.176-1.152l-65.024 62.336c-0.609 0.749-1.055 1.654-1.272 2.646l-0.008 0.042c-0.64 9.088 0.512 12.032 11.264 15.104 2.176 0.64 6.016 2.56 6.016 4.992 0 2.816-5.504 3.712-8.192 3.712-1.92 0-13.696-0.64-20.48-0.64-4.352 0-12.416 1.024-18.688 1.024-4.352 0-6.656-1.28-6.656-3.84 0-1.92 3.328-3.328 5.632-3.968 9.216-2.688 11.776-4.352 12.416-13.056 0.384-6.656 0.512-19.456 0.512-47.36 0-21.376 0.256-35.584-0.768-42.624-0.768-5.76-5.248-7.040-11.776-9.088-4.224-1.408-5.76-2.688-5.76-4.736 0-1.92 2.56-3.328 5.376-3.328zM2284.9 787.2c11.392 0 18.432 0.768 23.808 0.768h83.328c7.68 0 16-0.768 19.968-0.768 3.84 0 5.504 1.664 5.504 3.456 0 1.92-1.536 3.2-6.656 4.352-8.192 1.92-9.856 4.736-10.112 9.728-0.384 7.68-0.768 25.984-0.768 45.184 0 17.92 0 35.328 0.768 43.52 1.024 9.856 3.328 10.624 12.288 13.056 4.352 1.024 6.272 3.072 6.272 4.992 0 2.304-1.92 3.328-5.76 3.328-3.712 0-13.184-0.64-20.48-0.64-10.24 0-17.92 0.64-23.68 0.64-4.736 0-6.912-1.408-6.912-3.072 0-2.176 1.792-3.968 6.272-5.12 10.24-2.56 11.648-4.864 12.416-13.696 0.768-7.296 2.048-85.504 0.384-93.44-0.384-1.28-1.92-2.176-2.304-2.176-29.696 0-57.088 0-61.056 0.64-1.28 0.128-2.176 2.304-2.176 2.816-0.768 9.088-0.512 90.112-0.128 94.464 0.896 6.528 3.328 8.576 14.72 12.16 2.432 0.64 4.608 2.56 4.608 4.352 0 2.176-1.792 3.072-6.784 3.072-5.632 0-11.264-0.64-19.712-0.64-6.4 0-17.792 1.024-23.68 1.024-4.352 0-6.4-0.768-6.4-3.072s2.304-3.84 6.016-4.992c10.112-2.56 11.52-5.504 12.032-14.464 0.64-8.96 0.64-34.56 0.64-64.128 0-15.488-0.512-23.040-1.28-25.856-0.768-3.456-2.304-5.12-13.184-8.32-2.176-0.512-4.352-1.792-4.352-4.096 0-1.792 2.56-3.072 6.4-3.072zM2515.556 855.040c-5.355-16.54-10.56-29.845-16.413-42.795l1.053 2.603c-0.512-1.28-2.176-1.024-2.56 0-4.608 10.88-10.752 26.88-15.36 40.192-0.128 0.768 0 1.792 1.536 2.048 3.84 0.384 27.136 0.64 30.976 0 0.64 0 1.28-1.28 0.768-2.048zM2515.94 806.4c10.752 29.312 28.544 72.96 33.28 85.376 4.48 10.496 5.888 11.52 17.408 15.36 4.608 1.408 6.272 3.584 6.272 5.888 0 1.28-2.048 2.176-5.12 2.176-11.008 0-18.944-1.024-29.184-1.024-9.472 0-9.472 0.384-16.128 0.384-3.968 0-5.888-1.28-5.888-2.56 0-1.664 1.024-3.84 4.864-4.864 9.856-2.816 10.624-4.224 8.576-11.52-1.536-5.632-6.912-19.2-9.472-25.216-0.384-1.28-2.944-2.816-5.376-2.816-4.224-0.256-29.312-0.256-35.84 0.384-1.024 0-2.944 1.792-3.328 2.816-2.944 8.32-8.576 23.68-8.576 27.904 0 2.56 0.384 5.376 10.496 8.448 2.688 0.768 4.608 1.664 4.608 3.2 0.256 2.048-2.304 4.48-7.168 4.48-2.304 0-11.264-0.64-17.28-0.64-7.168 0-10.88 1.024-18.816 1.024-3.84 0-6.912-0.768-7.168-3.072 0-1.92 1.92-3.968 6.4-5.12 10.24-2.56 13.824-6.784 16-11.136 6.4-13.312 28.416-66.56 38.656-92.928 0.64-1.664 1.28-4.096 1.536-5.632 0-0.64 1.024-2.048 1.408-2.304 2.304-1.536 5.504-3.84 7.552-5.632 1.179-1.077 2.657-1.845 4.295-2.167l0.057-0.009c2.176 0 3.2 5.632 7.936 19.2zM2660.708 805.888c-5.76-7.040-16.128-10.496-27.264-10.496-2.304 0-4.608 0.64-5.504 1.408-0.64 0.64-1.408 1.92-1.408 2.944-0.256 4.096-0.896 18.304-0.896 46.080v42.24c0 14.080 1.28 16 15.744 19.328 2.944 0.64 4.608 1.792 4.608 4.096 0 2.048-3.072 3.328-5.632 3.328-6.4 0-10.752-0.896-19.328-0.896-7.68 0-21.76 1.28-28.8 1.28-2.944 0-6.528-1.28-6.528-3.328 0-2.176 1.408-3.2 6.144-4.48 11.264-3.072 11.264-4.992 13.056-15.872 0.512-4.736 1.792-23.040 1.792-59.52 0-16 0-23.424-0.64-28.16-0.384-4.736-4.992-6.016-12.8-8.064-3.328-0.768-5.632-2.816-5.632-4.864 0-2.56 1.664-3.072 5.12-3.072 4.992 0 17.92 0.64 20.736 0.64 7.168 0 16-1.28 26.24-1.28 18.304 0 30.976 5.504 38.144 12.8 6.016 6.4 10.24 17.152 10.24 27.008 0 13.568-6.4 22.912-12.032 28.032-8.576 8.192-22.016 11.264-29.184 11.264-1.408 0-5.12 0.256-7.296-1.408-1.152-0.64-3.456-2.688-3.456-3.84 0-1.536 1.536-2.304 2.304-2.56l4.736-0.64c10.624-0.128 24.704-8.96 24.704-29.184 0-9.216-2.944-17.92-7.168-22.784zM2803.3 792.96c11.392 0 14.976-0.64 16.896-2.432 2.176-1.792 3.584-3.072 4.864-3.072 0.64 0 3.84 2.304 3.84 3.712 0 1.28-2.56 12.8-2.56 26.24 0 2.688-1.92 5.504-4.224 5.504-2.176 0-3.456-2.816-3.84-4.608-2.816-12.416-6.912-14.464-12.416-14.976-3.072-0.512-12.416-0.896-29.696-0.896-0.896 0-2.56 1.408-2.688 2.56-0.64 5.376-1.024 29.44-1.024 41.984 0 12.032 0 30.336 0.768 41.6 1.024 14.336 4.48 14.72 14.72 18.688 3.712 1.28 5.888 2.176 5.888 4.608 0 1.536-2.048 3.328-6.144 3.328-1.92 0-16.896-1.024-29.056-1.024-12.032 0-17.152 0.64-22.656 0.64-4.224 0-6.4-1.536-6.4-3.84 0-1.536 2.176-2.944 5.76-3.84 14.464-3.84 17.92-4.48 17.92-17.92 0-4.224 0.64-24.832 0.64-56.192v-25.984c0-2.432-1.408-4.608-2.048-4.608l-29.056-0.128c-3.072 0-8.576 2.304-13.312 14.72-1.28 3.328-3.072 5.504-4.736 5.504-3.2 0-3.968-2.816-3.84-7.552 0.384-6.144 2.048-14.848 1.408-24.32-0.128-1.664 3.456-3.456 4.352-3.456 0.64 0 1.792 0.64 3.072 1.792 3.072 2.56 5.248 3.328 11.136 3.584 8.32 0.384 6.528 0.384 13.056 0.384h69.376zM2880.996 842.752c19.2 0 50.432-0.384 62.208 0.128 0.512 0 2.56-1.792 2.56-2.816 0-5.632 0-32.64-0.896-36.992 0-3.456-6.4-6.016-10.624-7.168-6.4-1.92-7.808-3.328-7.808-4.736 0-2.176 1.792-3.84 5.76-3.84 8.064 0 16 0.64 23.424 0.64 7.68 0 15.744-0.768 19.712-0.768 3.84 0 5.376 1.664 5.376 3.456 0 1.92-1.536 3.2-6.528 4.352-8.064 1.92-9.728 4.736-9.984 9.728-0.384 7.68-0.768 25.984-0.768 45.184 0 17.92 0 35.328 0.768 43.52 1.024 9.856 3.328 10.624 12.032 13.056 4.352 1.024 6.272 3.072 6.272 4.992 0 2.304-1.92 3.328-5.632 3.328s-13.056-0.64-20.224-0.64c-10.24 0-17.536 0.64-23.424 0.64-4.608 0-6.784-1.408-6.784-3.072 0-2.176 1.792-3.968 6.272-5.12 10.112-2.56 11.52-4.864 12.16-13.696 0.768-6.4 1.408-23.552 0.768-31.36-0.384-7.296-1.92-7.68-2.048-7.68-29.184 0-59.648 0-63.36 0.64-1.28 0-2.304 2.048-2.304 2.56 0 27.776 0.256 34.944 0.64 38.144 0.896 6.528 3.2 8.576 14.592 12.16 2.304 0.64 4.48 2.56 4.48 4.352 0 2.176-1.792 3.072-6.656 3.072-5.632 0-11.136-0.64-19.456-0.64-6.272 0-17.536 1.024-23.424 1.024-4.224 0-6.144-0.768-6.144-3.072s2.048-3.84 5.76-4.992c9.984-2.56 11.52-5.504 11.904-14.464 0.64-8.96 0.64-34.56 0.64-64.128 0-15.488-0.384-23.040-1.28-25.856-0.768-3.456-2.304-5.12-12.928-8.32-2.176-0.512-4.352-1.792-4.352-4.096 0-1.792 2.56-3.072 6.272-3.072 11.264 0 18.304 0.768 23.552 0.768 6.016 0 8.704-0.512 15.488-0.512 3.2 0 5.376 1.28 5.376 3.456 0 1.664-2.56 3.328-4.864 3.84-6.4 2.176-9.6 4.48-9.6 12.032 0 6.4 0.256 20.096 0 33.28 0 1.024 1.536 2.56 3.072 2.56zM3050.724 788.224c17.28 0 23.040-0.768 27.776-0.768 2.048 0 3.584 0.128 4.48 1.792 1.28 2.048 3.2 16.64 3.2 21.248 0 2.048-1.792 4.992-3.328 4.992-2.304 0-4.096-2.688-8.448-11.52-2.56-5.888-6.016-6.912-6.912-6.912-11.136 0-26.368 0.384-29.056 0.384-0.64 0-2.048 2.688-2.176 3.84-0.64 5.76-0.768 24.448-0.768 38.656 0 1.664 0.768 5.76 2.56 5.76 1.664 0 9.472 0.256 12.672 0 12.8-0.64 15.104-2.816 17.28-8.832 1.536-4.352 2.688-6.016 4.736-6.016 2.56 0 3.456 2.944 3.072 8.32-0.384 4.034-0.604 8.722-0.604 13.461 0 3.596 0.126 7.162 0.374 10.695l-0.027-0.476c0.512 5.376-1.92 6.784-3.072 6.784-1.28 0-3.328-1.024-4.608-5.12-2.048-6.016-3.584-8.064-7.68-8.448-7.936-0.64-13.44-0.64-22.144-0.64-1.28 0-2.56 3.456-2.56 5.12 0 19.2 0.384 25.984 0.512 30.592 0.384 5.888 1.536 9.984 2.432 10.624 1.664 1.664 7.424 4.224 22.4 4.224 7.936 0 10.24-0.256 14.72-1.664 5.376-1.664 8.448-5.632 12.8-12.16 3.072-5.632 4.48-8.064 6.784-8.064 2.944 0 2.944 5.376 2.176 9.216-1.28 6.016-5.376 15.872-6.144 17.792-1.152 2.816-5.632 4.096-6.4 4.096-7.936 0-13.44-1.024-48.896-1.024-12.288 0-24.96 1.024-33.28 1.024-4.992 0-7.296-0.768-7.296-2.56 0-2.432 2.304-4.48 6.4-5.504 12.544-3.072 14.592-4.864 15.36-12.8 0.367-12.107 0.576-26.348 0.576-40.638 0-17.173-0.302-34.276-0.901-51.304l0.069 2.47c-0.64-6.4-4.608-7.936-12.288-9.984-3.328-0.896-5.376-2.944-5.376-4.352 0-2.56 2.816-3.328 5.376-3.328 3.2 0 13.184 1.024 26.112 1.024h20.096zM3185.508 805.888c-5.888-7.040-16.128-10.496-27.264-10.496-2.304 0-4.608 0.64-5.504 1.408-0.64 0.64-1.408 1.92-1.408 2.944-0.256 4.096-0.896 18.304-0.896 46.080v42.24c0 14.080 1.28 16 15.744 19.328 2.944 0.64 4.608 1.792 4.608 4.096 0 2.048-3.072 3.328-5.632 3.328-6.4 0-10.752-0.896-19.328-0.896-7.68 0-21.76 1.28-28.8 1.28-2.944 0-6.528-1.28-6.528-3.328 0-2.176 1.408-3.2 6.144-4.48 11.264-3.072 11.264-4.992 12.928-15.872 0.64-4.736 1.92-23.040 1.92-59.52 0-16 0-23.424-0.64-28.16-0.384-4.736-5.12-6.016-12.8-8.064-3.328-0.768-5.632-2.816-5.632-4.864 0-2.56 1.664-3.072 5.12-3.072 4.992 0 17.92 0.64 20.736 0.64 7.168 0 16-1.28 26.24-1.28 18.304 0 30.976 5.504 38.144 12.8 6.016 6.4 10.24 17.152 10.24 27.008 0 13.568-6.4 22.912-12.032 28.032-8.576 8.192-22.016 11.264-29.184 11.264-1.408 0-5.12 0.256-7.296-1.408-1.152-0.64-3.456-2.688-3.456-3.84 0-1.536 1.536-2.304 2.304-2.56l4.736-0.64c10.624-0.128 24.704-8.96 24.704-29.184 0-9.216-2.944-17.92-7.168-22.784zM3365.476 817.92c0-17.536-1.024-19.584-14.080-22.656-3.584-0.896-5.12-2.944-5.12-4.736 0-1.28 3.456-3.072 6.4-3.072 3.968 0 11.52 0.512 20.48 0.512 12.288 0 17.92-0.768 23.808-0.768 2.432 0 4.864 1.664 4.864 3.712 0 1.792-2.56 3.328-4.352 3.712-11.776 3.072-12.672 5.376-13.056 15.872-0.384 8.448-0.384 30.976-0.384 44.928 0 22.4 0.256 34.048 0.256 36.736 0.384 9.6 3.072 11.52 15.36 14.592 3.84 1.024 5.248 2.56 5.248 4.096 0 2.688-4.352 3.84-6.784 3.84-2.048 0-16.64-0.768-23.68-0.768-7.168 0-19.2 1.28-22.912 1.28-2.56 0-5.504-1.408-5.504-3.072 0-1.92 2.56-3.84 5.12-4.736 10.624-3.84 12.288-5.632 12.8-9.728 0.64-4.352 1.536-34.56 1.536-51.456v-28.288zM3290.596 847.232c-5.504 0-8.96 0.512-10.24 1.28-0.512 0-1.536 1.28-2.176 3.968-1.024 6.016 0.384 37.12 0.384 41.728 0.256 7.68 9.216 12.288 14.72 12.288 6.784 0 16.64-3.456 21.76-8.832 5.12-5.12 8.448-12.16 8.448-21.76 0-14.72-10.368-28.672-32.896-28.672zM3326.052 906.368c-9.728 6.528-28.416 8.192-35.456 8.192l-24.96-0.384c-8.064-0.256-17.92 0.384-21.248 0.384-2.816 0-5.888-1.28-5.888-3.712 0-2.048 2.56-3.712 5.12-4.352 10.88-2.56 14.976-4.48 15.488-10.496 0.384-4.096 1.024-23.296 1.28-46.592 0.384-23.296-0.256-32.384-0.256-40.832s-1.536-10.24-12.8-13.184c-2.944-0.512-5.504-2.176-5.504-4.224 0-2.688 2.176-3.84 7.040-3.84 4.608 0 14.976 0.512 20.48 0.64 7.936 0.256 14.336-0.512 19.2-0.512 3.84 0 7.168 1.28 7.168 3.456 0 2.304-2.176 3.84-6.784 4.992-7.68 1.664-9.728 4.096-10.24 10.24-0.512 6.4-0.512 20.864-0.512 31.36 0 1.664 1.792 2.56 2.048 2.56 5.888-1.28 14.336-1.792 19.968-1.792 30.080 0 43.776 15.744 43.776 36.352 0 17.28-9.856 26.112-17.92 31.744z"></path>
<path fill="#4d4e4c" d="M441.956 407.040c-2.56-10.112-13.824-36.992-15.36-40.192-0.512-1.408-2.176-1.024-2.56 0-4.608 10.88-10.752 26.88-15.36 40.192-0.128 0.768 0 1.792 1.536 2.048 3.84 0.384 27.136 0.512 30.976 0 0.512 0 1.28-1.28 0.768-2.048zM442.34 358.4c10.752 29.312 28.544 72.96 33.28 85.376 4.48 10.496 5.888 11.52 17.408 15.36 4.608 1.28 6.272 3.584 6.272 5.888 0 1.28-2.048 2.176-5.12 2.176-11.008 0-18.944-1.024-29.184-1.024-9.472 0-9.472 0.384-16.128 0.384-3.968 0-5.888-1.28-5.888-2.56 0-1.664 1.024-3.84 4.864-4.864 9.856-2.816 10.624-4.224 8.576-11.52-1.536-5.632-6.912-19.2-9.472-25.216-0.384-1.28-2.944-2.816-5.376-2.816-4.224-0.256-29.312-0.256-35.84 0.384-1.024 0-2.944 1.792-3.328 2.816-2.944 8.32-8.576 23.68-8.576 27.904 0 2.56 0.384 5.376 10.496 8.448 2.688 0.768 4.608 1.664 4.608 3.2 0.128 2.048-2.304 4.48-7.168 4.48-2.304 0-11.264-0.64-17.28-0.64-7.168 0-10.88 1.024-18.816 1.024-3.84 0-6.912-0.768-7.168-3.072 0-1.92 1.92-3.968 6.272-5.12 10.496-2.56 14.080-6.784 16.128-11.136 6.4-13.44 28.416-66.56 38.656-92.928 0.64-1.664 1.28-4.096 1.536-5.632 0-0.64 1.024-2.048 1.408-2.176 2.304-1.664 5.504-3.84 7.552-5.76 1.179-1.077 2.657-1.845 4.295-2.167l0.057-0.009c2.176 0 3.2 5.632 7.936 19.2zM601.7 454.272c-2.688-9.6-27.264-75.136-30.848-83.2-0.256-0.896-1.408-0.64-1.792 0.384-9.472 25.856-27.648 75.52-28.544 82.816 0 0.768 1.28 2.944 2.56 2.944l57.088-0.128c1.408-0.384 1.792-1.92 1.664-2.816zM528.612 471.552c-4.48 5.248-5.12 15.104-5.632 24.832-0.384 6.4-2.56 9.216-5.248 9.216-2.432 0-3.968-5.504-4.224-7.936-0.768-12.8-0.768-27.904-1.408-36.096 0-0.384 0.384-3.456 1.792-3.456l9.472-0.64c1.792 0 4.48-2.304 4.864-3.456 5.12-10.624 24.96-64.512 36.736-96.256 0.64-1.664 0.896-3.456 1.024-4.736 0-0.768 0.256-1.28 0.64-1.792 1.792-2.304 5.76-7.168 7.040-9.344 1.28-1.92 2.432-2.688 3.84-2.688 1.92 0 2.944 3.712 7.040 15.744 5.12 15.36 33.792 89.6 38.016 99.072 0.128 0.768 2.176 3.456 3.584 3.456l11.904 0.384c0.768 0 2.432 1.664 2.048 3.712-1.664 7.296-4.736 22.784-5.76 34.816-0.384 4.48-3.2 8.96-6.016 8.96-2.432 0-3.84-3.456-3.328-9.088l0.384-8.96c0-16.768-6.272-19.84-14.080-19.84h-74.624c-1.664 0-6.656 2.56-8.064 4.096zM699.876 347.392c-2.432 0-5.504 0.64-6.4 1.024-0.768 0.384-1.536 1.28-1.664 3.328-0.338 6.117-0.531 13.276-0.531 20.48s0.193 14.363 0.573 21.472l-0.042-0.992c0.128 1.28 2.688 2.048 5.248 2.048 10.24 0 18.944-1.792 21.76-3.2 1.92-1.28 8.96-7.168 8.96-20.096 0-12.416-7.68-24.064-27.904-24.064zM703.46 402.56c-3.072 0-8.32 0.64-9.344 1.024-1.324 1.307-2.244 3.022-2.553 4.941l-0.007 0.051c-0.64 4.096-0.64 31.744 0.768 38.4 1.664 7.296 12.8 12.288 16.384 12.288 9.856 0 20.096-8.064 22.144-12.16 2.176-4.992 4.096-10.624 4.096-17.024 0-19.2-14.72-27.52-31.488-27.52zM739.684 386.816c-1.536 2.048-7.296 5.76-11.264 7.296-0.384 0.256 0.256 2.304 1.28 2.688 14.080 4.608 25.6 15.872 25.6 31.232 0 20.096-12.8 29.952-24.32 34.56-8.064 3.2-18.048 4.608-26.88 4.608-12.288 0-22.784-0.768-30.72-1.024-6.656-0.256-10.24 0.384-14.080 0.384-2.56 0-6.4-1.28-6.4-3.456 0-3.072 2.304-4.096 7.552-5.376 7.808-1.792 12.032-2.176 12.928-13.312 0.384-3.712 0.768-4.48 0.768-49.664 0-11.008 0.256-30.080-0.384-36.224-0.512-7.040-2.304-8.96-13.184-10.24-2.176-0.256-4.864-1.92-4.864-4.352 0-2.048 2.688-3.328 7.68-3.328h9.984c7.168 0 19.328-1.408 32.64-1.408 14.336 0 24.064 3.84 29.184 8.192 6.912 5.504 10.624 13.952 10.624 22.4 0 7.68-2.432 12.8-6.144 17.024zM816.1 359.040c-8.891 10.405-14.301 24.016-14.301 38.892 0 1.178 0.034 2.348 0.101 3.509l-0.007-0.161c0 27.776 17.92 57.472 47.36 57.472 8.576 0 17.28-3.072 23.68-9.216 7.68-7.424 14.848-21.888 14.848-46.080 0-28.16-17.92-55.936-46.464-55.936-9.903 0.732-18.691 4.995-25.216 11.52v0zM908.9 402.688c0 20.992-10.752 43.904-32 56.32-8.192 4.608-19.712 8.192-32 8.192-0.386 0.008-0.841 0.013-1.297 0.013-34.993 0-63.36-28.367-63.36-63.36 0-17.186 6.842-32.774 17.951-44.188l-0.014 0.014c11.909-12.218 28.363-19.956 46.624-20.478l0.096-0.002c35.584 0 64.128 26.496 64.128 63.488zM942.564 342.528c4.608 0 14.72 0.64 20.992 0.64 5.632 0 14.208-0.64 18.816-0.64 3.456 0 5.76 1.024 5.76 3.2 0 2.56-2.816 3.84-5.76 4.608-6.272 1.664-8.96 2.56-9.472 9.344-0.512 6.272-1.28 30.72-0.384 36.992 0.256 0.512 0.384 1.152 1.664 1.152 11.008 0 16.64-1.792 25.472-14.976 6.144-9.216 8.576-14.592 16.128-25.6 7.040-10.496 16.512-18.048 25.6-18.048 8.064 0 10.88 3.2 10.88 7.68 0 3.712-3.328 8.448-5.76 8.448-2.816 0-4.864-1.28-8.448-1.28-7.936 0-13.184 4.096-21.632 17.408-6.784 11.008-13.056 20.224-16.64 23.808-0.128 0.128-0.384 1.28-0.128 1.536 5.504 8.96 20.224 31.744 30.208 43.904 13.44 16.64 17.664 16.64 28.416 18.944 2.048 0.64 4.224 1.536 4.224 2.944 0 3.456-5.632 4.608-11.52 4.608-16.128 0-25.344-3.2-33.536-13.184-7.854-9.851-15.78-20.954-23.121-32.467l-0.943-1.581c-5.376-8.576-9.984-14.72-19.456-14.72-1.024 0-1.28 1.92-1.28 2.176-0.256 8.96-0.64 31.488 0.256 40.064 0.512 6.016 2.56 8.192 13.44 10.24 3.584 0.64 5.248 2.688 5.248 4.48 0 2.176-2.816 3.456-6.016 3.456-4.224 0-9.984-0.64-16-0.64s-23.68 1.28-29.824 1.28c-2.048 0-5.248-1.664-5.248-3.84 0-2.56 2.432-3.584 6.4-4.608 8.832-1.792 12.416-4.224 13.056-14.976 0.512-10.752 0.768-21.76 0.768-42.112 0-28.672 0-34.048-0.64-41.6-0.128-5.376-5.76-7.168-11.136-8.576-4.864-1.28-6.912-2.432-6.912-5.12 0-2.304 2.816-2.944 6.4-2.944z"></path>
<path fill="#4d4e4c" d="M1145.956 407.040c-2.56-10.112-13.824-36.992-15.36-40.192-0.512-1.408-2.176-1.024-2.56 0-4.608 10.88-10.752 26.88-15.36 40.192-0.128 0.768 0 1.792 1.536 2.048 3.84 0.384 27.136 0.512 30.976 0 0.64 0 1.28-1.28 0.768-2.048zM1146.34 358.4c10.752 29.312 28.544 72.96 33.28 85.376 4.48 10.496 5.888 11.52 17.408 15.36 4.608 1.28 6.272 3.584 6.272 5.888 0 1.28-2.048 2.176-5.12 2.176-11.008 0-18.944-1.024-29.184-1.024-9.472 0-9.472 0.384-16.128 0.384-3.84 0-5.888-1.28-5.888-2.56 0-1.664 1.152-3.84 4.864-4.864 9.856-2.816 10.624-4.224 8.576-11.52-1.536-5.632-6.912-19.2-9.472-25.216-0.384-1.28-2.816-2.816-5.376-2.816-4.224-0.256-29.312-0.256-35.84 0.384-1.024 0-2.816 1.792-3.328 2.816-2.944 8.32-8.576 23.68-8.576 27.904 0 2.56 0.384 5.376 10.496 8.448 2.688 0.768 4.608 1.664 4.608 3.2 0.256 2.048-2.304 4.48-7.168 4.48-2.304 0-11.264-0.64-17.28-0.64-7.168 0-10.88 1.024-18.816 1.024-3.84 0-6.912-0.768-7.168-3.072 0-1.92 1.92-3.968 6.4-5.12 10.24-2.56 13.952-6.784 16-11.136 6.4-13.44 28.416-66.56 38.656-92.928 0.64-1.664 1.28-4.096 1.536-5.632 0-0.64 1.024-2.048 1.408-2.176 2.304-1.664 5.504-3.84 7.552-5.76 1.179-1.077 2.657-1.845 4.295-2.167l0.057-0.009c2.176 0 3.2 5.632 7.936 19.2zM1292.9 344.96c11.392 0 14.976-0.64 16.896-2.432 2.176-1.792 3.584-3.072 4.864-3.072 0.64 0 3.84 2.304 3.84 3.712 0 1.28-2.56 12.8-2.56 26.24 0 2.688-1.92 5.504-4.224 5.504-2.176 0-3.456-2.816-3.84-4.608-2.816-12.416-6.912-14.464-12.416-14.976-3.072-0.384-12.416-0.896-29.696-0.896-0.896 0-2.56 1.408-2.688 2.56-0.64 5.376-1.024 29.44-1.024 41.984 0 12.032 0 30.336 0.768 41.6 1.024 14.336 4.48 14.72 14.72 18.688 3.712 1.28 5.888 2.176 5.888 4.608 0 1.536-2.048 3.328-6.144 3.328-1.92 0-16.896-1.024-29.056-1.024-12.032 0-17.152 0.64-22.656 0.64-4.224 0-6.4-1.664-6.4-3.84 0-1.536 2.176-2.944 5.76-3.84 14.464-3.84 17.92-4.48 17.92-17.92 0-4.224 0.64-24.832 0.64-56.192v-25.984c0-2.432-1.408-4.608-2.048-4.608l-29.056-0.128c-3.072 0-8.576 2.304-13.312 14.72-1.28 3.328-3.072 5.504-4.736 5.504-3.2 0-3.968-2.816-3.84-7.552 0.384-6.144 2.048-14.848 1.408-24.32-0.128-1.664 3.456-3.456 4.352-3.456 0.64 0 1.792 0.64 3.072 1.792 3.072 2.56 5.248 3.328 11.136 3.584 8.448 0.384 6.528 0.384 13.056 0.384h69.376zM1428.452 343.040c4.864 1.28 11.264 3.456 12.8 3.456 1.024 0 3.072 2.048 3.072 3.2 0 3.584 1.024 15.36 1.024 20.48 0 5.376-2.176 7.68-4.608 7.68-2.048 0-3.2-3.072-3.968-5.76-1.39-8.322-6.513-15.216-13.555-19.003l-0.141-0.069c-6.381-3.365-13.946-5.34-21.972-5.34-12.043 0-23.048 4.447-31.461 11.789l0.057-0.049c-10.28 10.576-16.623 25.026-16.64 40.957v0.003c0 12.8 5.504 30.208 11.648 37.76 10.24 12.672 26.112 19.712 39.168 19.712 5.76 0 15.36-2.56 21.376-5.248 1.792-1.024 7.296-6.144 10.88-12.8 3.2-6.272 4.736-8.832 6.784-8.832 2.176 0 3.584 2.944 3.584 6.784 0 1.792-3.328 14.464-4.608 18.56-0.384 1.28-2.944 3.84-3.584 4.096-10.977 4.033-23.652 6.495-36.863 6.782l-0.129 0.002c-1.097 0.060-2.382 0.094-3.674 0.094-19.65 0-37.466-7.851-50.483-20.586l0.013 0.013c-9.853-11.064-15.874-25.73-15.874-41.801 0-0.154 0.001-0.308 0.002-0.463v0.024c-0.011-0.433-0.017-0.942-0.017-1.454 0-21.251 10.79-39.983 27.189-51.015l0.22-0.139c12.039-7.968 26.816-12.711 42.702-12.711 0.873 0 1.742 0.014 2.608 0.043l-0.126-0.003c9.344 0 17.92 1.92 24.576 3.84zM1480.164 342.528c4.608 0 14.72 0.64 20.992 0.64 5.632 0 14.208-0.64 18.816-0.64 3.456 0 5.76 1.024 5.76 3.2 0 2.56-2.816 3.84-5.76 4.608-6.272 1.664-8.96 2.56-9.472 9.344-0.512 6.272-1.28 30.72-0.384 36.992 0.256 0.512 0.384 1.152 1.664 1.152 11.008 0 16.64-1.792 25.472-14.976 6.144-9.216 8.576-14.592 16.128-25.6 7.040-10.496 16.512-18.048 25.6-18.048 8.064 0 10.88 3.2 10.88 7.68 0 3.712-3.328 8.448-5.76 8.448-2.816 0-4.864-1.28-8.448-1.28-7.936 0-13.184 4.096-21.632 17.408-6.784 11.008-13.056 20.224-16.64 23.808-0.128 0.128-0.384 1.28-0.128 1.536 5.504 8.96 20.224 31.744 30.208 43.904 13.44 16.64 17.664 16.64 28.416 18.944 2.048 0.64 4.224 1.536 4.224 2.944 0 3.456-5.632 4.608-11.52 4.608-16.128 0-25.344-3.2-33.536-13.184-7.86-9.853-15.786-20.957-23.124-32.471l-0.94-1.577c-5.376-8.576-9.984-14.72-19.456-14.72-1.024 0-1.28 1.92-1.28 2.176-0.256 8.96-0.64 31.488 0.256 40.064 0.512 6.016 2.56 8.192 13.44 10.24 3.584 0.64 5.248 2.688 5.248 4.48 0 2.176-2.816 3.456-6.016 3.456-4.224 0-9.984-0.64-16-0.64s-23.68 1.28-29.824 1.28c-2.048 0-5.248-1.664-5.248-3.84 0-2.56 2.432-3.584 6.4-4.608 8.832-1.792 12.416-4.224 13.056-14.976 0.512-10.752 0.768-21.76 0.768-42.112 0-28.672 0-34.048-0.64-41.6-0.128-5.376-5.76-7.168-11.136-8.576-4.864-1.28-6.912-2.432-6.912-5.12 0-2.304 2.816-2.944 6.4-2.944zM1648.1 359.040c-8.891 10.405-14.301 24.016-14.301 38.892 0 1.178 0.034 2.348 0.101 3.509l-0.007-0.161c0 27.776 17.92 57.472 47.36 57.472 8.704 0 17.28-3.072 23.68-9.216 7.68-7.424 14.848-21.888 14.848-46.080 0-28.16-17.92-55.936-46.464-55.936-9.903 0.732-18.691 4.995-25.216 11.52v0zM1740.9 402.688c0 20.992-10.752 43.904-32 56.32-8.192 4.608-19.712 8.192-32 8.192-0.386 0.008-0.841 0.013-1.297 0.013-34.993 0-63.36-28.367-63.36-63.36 0-17.186 6.842-32.774 17.951-44.188l-0.014 0.014c11.909-12.218 28.363-19.956 46.624-20.478l0.096-0.002c35.584 0 64.128 26.496 64.128 63.488zM1809.124 340.224c17.28 0 23.040-0.768 27.776-0.768 2.048 0 3.584 0.128 4.48 1.792 1.28 2.048 3.2 16.64 3.2 21.248 0 2.048-1.792 4.992-3.328 4.992-2.304 0-4.096-2.688-8.448-11.52-2.56-5.888-6.016-6.912-7.040-6.912-11.008 0-26.24 0.512-28.928 0.512-0.64 0-2.048 2.56-2.176 3.712-0.64 5.76-0.768 24.448-0.768 38.656 0 1.664 0.768 5.76 2.56 5.76 1.664 0 9.472 0.256 12.672 0 12.8-0.64 15.104-2.816 17.28-8.832 1.536-4.352 2.688-6.016 4.736-6.016 2.56 0 3.456 2.944 3.072 8.32-0.382 4.038-0.599 8.732-0.599 13.476 0 3.59 0.125 7.152 0.37 10.68l-0.027-0.476c0.512 5.376-1.92 6.784-3.072 6.784-1.28 0-3.328-1.024-4.608-5.12-2.048-6.016-3.584-8.064-7.68-8.448-7.936-0.64-13.44-0.64-22.144-0.64-1.28 0-2.56 3.456-2.56 5.12 0 19.2 0.384 25.984 0.512 30.592 0.384 5.888 1.536 9.984 2.432 10.624 1.664 1.664 7.296 4.224 22.4 4.224 7.936 0 10.24-0.256 14.72-1.664 5.376-1.664 8.448-5.632 12.8-12.16 3.072-5.632 4.352-8.064 6.784-8.064 2.944 0 2.944 5.376 2.176 9.216-1.813 6.944-3.913 12.864-6.445 18.549l0.301-0.757c-1.152 2.816-5.632 4.096-6.4 4.096-7.936 0-13.44-1.024-48.896-1.024-12.288 0-24.96 1.024-33.28 1.024-4.992 0-7.296-0.768-7.296-2.56 0-2.432 2.304-4.48 6.4-5.504 12.544-3.072 14.592-4.864 15.232-12.8 0.64-5.504 0.768-10.624 0.768-20.992 0-31.744-0.384-64.64-1.024-68.352-0.512-6.4-4.48-8.064-12.16-10.24-3.328-0.768-5.376-2.816-5.376-4.224 0-2.56 2.816-3.328 5.376-3.328 3.2 0 13.184 1.024 26.112 1.024h20.096zM1318.244 632.832c-6.4 0-8.704 0.512-9.984 1.28-0.64 0-1.792 1.792-2.176 4.224-1.024 5.504-0.256 30.72 0.512 37.888 1.024 8.064 10.752 13.824 15.616 13.824 16 0 27.136-11.52 27.136-29.44 0-14.080-8.704-27.776-31.104-27.776zM1277.284 571.392c4.608 0 14.336 0.896 20.608 0.896h35.968c1.141 0.095 2.47 0.149 3.812 0.149 5.885 0 11.527-1.040 16.752-2.945l-0.34 0.108c1.536 0 3.584 2.816 3.584 5.12l1.28 21.376c0 2.048-1.152 4.864-3.456 4.864-2.176 0-3.84-2.816-5.376-7.296-2.176-6.4-4.352-11.52-12.416-11.776-4.224-0.256-21.76-0.256-28.16-0.512-1.28 0-2.688 2.688-2.944 3.712-1.152 6.144-1.28 32.384-0.384 37.12 0.384 1.408 1.28 3.456 2.176 3.2 4.224-0.768 12.288-1.536 17.92-1.536 28.544 0 43.392 12.544 43.392 34.816 0 16.896-10.496 25.216-18.432 30.72-9.216 6.528-25.088 8.192-31.744 8.192-5.12 0-16.64-0.384-25.344-0.64-7.936-0.128-17.792 0.384-20.992 0.384-2.944 0-5.888-1.28-5.888-3.584 0-2.048 2.432-3.456 4.992-4.096 10.368-2.56 14.72-4.736 15.36-10.624 0.64-4.864 1.024-47.36 1.024-83.2 0-10.752-1.792-14.208-13.312-16.896-2.56-0.768-4.736-2.176-4.736-4.48 0-2.432 3.584-3.072 6.784-3.072zM1483.62 588.16c-7.68 7.68-14.72 20.992-14.72 42.88 0 34.432 18.176 57.984 44.8 57.984 5.76 0 16-2.432 23.040-8.448 8.32-7.168 15.36-21.12 15.36-43.52 0-29.44-13.568-58.624-44.16-58.624-9.344 0-18.432 3.584-24.32 9.728zM1389.156 572.032c4.736 0 16.128 0.512 22.4 0.512 9.728 0 14.080-0.768 20.864-0.768 3.2 0 5.632 1.28 5.632 3.584 0 2.048-2.816 3.456-6.016 4.224-8.576 2.176-10.624 4.736-10.752 9.216-0.384 3.84-0.896 10.24-0.64 35.328 0 1.28 0.768 1.28 1.28 1.28h23.296c0.768 0 1.792-0.256 2.048-1.536 4.528-30.768 30.683-54.139 62.322-54.272h0.014c0.649-0.024 1.412-0.038 2.177-0.038 34.639 0 62.72 28.081 62.72 62.72 0 0.148-0.001 0.296-0.002 0.445v-0.023c0 25.984-12.416 43.136-26.368 52.864-12.032 8.576-25.856 12.032-37.632 12.032-0.807 0.038-1.752 0.060-2.703 0.060-33.176 0-60.158-26.515-60.912-59.51l-0.001-0.070c0-0.768-0.896-2.048-1.92-2.048l-23.040 0.256c-0.512 0-1.28 0.64-1.28 1.408 0 23.040-0.384 30.592 0 35.84 0.768 10.496 4.736 11.264 14.208 13.824 3.456 1.024 5.504 2.56 5.504 4.48 0 2.816-3.072 3.328-5.504 3.328-6.656 0-19.712-0.512-24.576-0.512-5.888 0-14.976 0.896-22.144 0.896-3.968 0-5.632-1.92-5.632-3.84 0-1.536 2.176-3.328 6.656-4.352 8.704-1.792 11.008-3.84 11.776-11.264 0.896-8.064 1.024-22.272 1.024-37.12l-0.128-45.44c0-7.936-2.048-10.752-12.416-13.312-3.456-0.896-5.888-2.816-5.888-5.12 0-1.92 2.432-3.072 5.632-3.072zM1675.108 588.288c-5.888-7.040-16.128-10.496-27.264-10.496-2.304 0-4.608 0.64-5.504 1.408-0.64 0.64-1.408 1.92-1.408 2.944-0.256 4.096-0.896 18.304-0.896 46.080v42.24c0 14.080 1.28 16 15.744 19.328 2.944 0.64 4.608 1.792 4.608 4.096 0 2.048-3.072 3.328-5.632 3.328-6.4 0-10.752-0.896-19.328-0.896-7.68 0-21.76 1.28-28.8 1.28-2.944 0-6.528-1.28-6.528-3.328 0-2.176 1.536-3.2 6.144-4.48 11.264-3.072 11.264-4.992 12.928-15.872 0.64-4.608 1.92-23.040 1.92-59.52 0-16 0-23.424-0.64-28.16-0.384-4.736-5.12-6.016-12.8-8.064-3.328-0.768-5.632-2.816-5.632-4.864 0-2.56 1.664-3.072 5.12-3.072 4.992 0 17.92 0.64 20.736 0.64 7.168 0 16-1.28 26.24-1.28 18.304 0 30.976 5.504 38.016 12.8 6.144 6.4 10.368 17.152 10.368 27.008 0 13.568-6.4 22.912-12.032 28.032-8.576 8.192-22.016 11.264-29.184 11.264-1.408 0-5.12 0.256-7.296-1.408-1.152-0.64-3.456-2.688-3.456-3.84 0-1.536 1.536-2.304 2.304-2.56l4.608-0.64c10.752-0.128 24.832-8.96 24.832-29.184 0-9.216-2.944-17.92-7.168-22.784zM1763.3 589.44c-8.891 10.405-14.301 24.016-14.301 38.892 0 1.178 0.034 2.348 0.101 3.509l-0.007-0.161c0 27.776 17.92 57.472 47.36 57.472 8.576 0 17.28-3.072 23.68-9.216 7.68-7.424 14.848-21.888 14.848-46.080 0-28.16-17.92-55.936-46.464-55.936-9.903 0.732-18.691 4.995-25.216 11.52v0zM1856.1 633.088c0 20.992-10.752 43.904-32 56.32-8.192 4.608-19.84 8.192-32 8.192-0.386 0.008-0.841 0.013-1.297 0.013-34.993 0-63.36-28.367-63.36-63.36 0-17.186 6.842-32.774 17.951-44.188l-0.014 0.014c11.909-12.218 28.363-19.956 46.624-20.478l0.096-0.002c35.584 0 64.128 26.496 64.128 63.488z"></path>
</symbol>

<symbol id="ardo" viewBox="0 0 2048 1024">
<path fill="#00569a" d="M10.136 476.23c0.89-5.343 43.631-122.88 160.278-204.8 119.318-75.687 301.857-106.852 441.656 23.151-186.991-64.111-325.899 64.111-325.899 64.111s-135.346 111.304-154.936 286.72c-79.249-45.412-121.099-169.183-121.099-169.183z"></path>
<path fill="#c2c4c7" d="M186.442 691.716c0 0-8.014-406.929 414.943-373.983-203.91 57.878-262.678 320.557-207.471 500.424-120.209-51.645-207.471-126.442-207.471-126.442z"></path>
<path fill="#c2c4c8" d="M689.538 386.296h-104.181l-155.826 338.365h97.948l28.494-69.454h158.497l28.494 69.454h99.729l-153.155-338.365zM579.124 596.439l56.988-135.346 56.097 135.346h-113.085z"></path>
<path fill="#c3c5c8" d="M1145.44 563.493c83.701-24.932 67.673-95.277 67.673-95.277-13.357-85.482-133.565-81.92-133.565-81.92h-221.718v338.365h89.043v-131.784c0 0 66.783 0 116.647 0s50.755 40.070 50.755 40.070v91.715h89.043l0.89-79.249c-0.89 0 8.904-82.81-58.769-81.92zM1063.52 534.109c-5.343 0-116.647 0-116.647 0v-89.043h116.647c0 0 61.44-2.671 61.44 44.522 0 48.083-56.097 44.522-61.44 44.522z"></path>
<path fill="#c1c3c9" d="M1458.873 386.296h-219.937v338.365h219.937c0 0 147.812-12.466 148.703-169.183 0.89-157.607-148.703-169.183-148.703-169.183zM1445.517 664.112h-116.647v-219.047h112.195c0 0 76.577 8.904 75.687 109.523-0.89 101.51-71.235 109.523-71.235 109.523z"></path>
<path fill="#c3c5c8" d="M1829.294 375.611c-132.675 0-208.362 80.139-208.362 178.977 0 119.318 93.496 178.977 208.362 178.977 143.36 0 203.019-80.139 208.362-178.977 5.343-109.523-93.496-178.977-208.362-178.977zM1829.294 673.907c-65.892 0-119.318-34.727-119.318-119.318 0-65.892 41.85-119.318 119.318-119.318 81.92 0 119.318 53.426 119.318 119.318 0 72.125-40.96 119.318-119.318 119.318z"></path>
</symbol>
</svg>
